<?xml version="1.0" encoding="UTF-8" standalone="no"?>
<!DOCTYPE svg PUBLIC "-//W3C//DTD SVG 1.1//EN"
 "http://www.w3.org/Graphics/SVG/1.1/DTD/svg11.dtd">
<!-- Generated by graphviz version 2.47.3 (20210619.1520)
 -->
<!-- Title: dependencies Pages: 1 -->
<svg width="656pt" height="247pt"
 viewBox="0.00 0.00 656.00 246.80" xmlns="http://www.w3.org/2000/svg" xmlns:xlink="http://www.w3.org/1999/xlink">
<g id="graph0" class="graph" transform="scale(1 1) rotate(0) translate(4 242.8)">
<title>dependencies</title>
<polygon fill="white" stroke="transparent" points="-4,4 -4,-242.8 652,-242.8 652,4 -4,4"/>
<text text-anchor="middle" x="324" y="-8.2" font-family="sans-serif" font-size="14.00">dependencies</text>
<g id="clust1" class="cluster">
<title>cluster_EntityFormModule</title>
<polygon fill="none" stroke="black" stroke-dasharray="1,5" points="8,-32.8 8,-230.8 640,-230.8 640,-32.8 8,-32.8"/>
</g>
<g id="clust7" class="cluster">
<title>cluster_EntityFormModule_providers</title>
<polygon fill="none" stroke="black" points="446,-40.8 446,-92.8 632,-92.8 632,-40.8 446,-40.8"/>
</g>
<g id="clust4" class="cluster">
<title>cluster_EntityFormModule_imports</title>
<polygon fill="none" stroke="black" points="186,-40.8 186,-92.8 438,-92.8 438,-40.8 186,-40.8"/>
</g>
<g id="clust2" class="cluster">
<title>cluster_EntityFormModule_declarations</title>
<polygon fill="none" stroke="black" points="16,-40.8 16,-92.8 178,-92.8 178,-40.8 16,-40.8"/>
</g>
<g id="clust5" class="cluster">
<title>cluster_EntityFormModule_exports</title>
<polygon fill="none" stroke="black" points="219,-170.8 219,-222.8 385,-222.8 385,-170.8 219,-170.8"/>
</g>
<!-- EntityFormComponent -->
<g id="node1" class="node">
<title>EntityFormComponent</title>
<polygon fill="#ffffb3" stroke="black" points="169.89,-84.8 24.11,-84.8 24.11,-48.8 169.89,-48.8 169.89,-84.8"/>
<text text-anchor="middle" x="97" y="-62.6" font-family="Times,serif" font-size="14.00">EntityFormComponent</text>
</g>
<!-- EntityFormModule -->
<g id="node2" class="node">
<title>EntityFormModule</title>
<polygon fill="#8dd3c7" stroke="black" points="364.11,-149.8 361.11,-153.8 340.11,-153.8 337.11,-149.8 239.89,-149.8 239.89,-113.8 364.11,-113.8 364.11,-149.8"/>
<text text-anchor="middle" x="302" y="-127.6" font-family="Times,serif" font-size="14.00">EntityFormModule</text>
</g>
<!-- EntityFormComponent&#45;&gt;EntityFormModule -->
<g id="edge1" class="edge">
<title>EntityFormComponent&#45;&gt;EntityFormModule</title>
<path fill="none" stroke="black" d="M97,-84.91C97,-104.14 97,-131.8 97,-131.8 97,-131.8 229.94,-131.8 229.94,-131.8"/>
<polygon fill="black" stroke="black" points="229.94,-135.3 239.94,-131.8 229.94,-128.3 229.94,-135.3"/>
</g>
<!-- EntityFormComponent  -->
<g id="node5" class="node">
<title>EntityFormComponent </title>
<polygon fill="#fb8072" stroke="black" points="376.89,-214.8 227.11,-214.8 227.11,-178.8 376.89,-178.8 376.89,-214.8"/>
<text text-anchor="middle" x="302" y="-192.6" font-family="Times,serif" font-size="14.00">EntityFormComponent </text>
</g>
<!-- EntityFormModule&#45;&gt;EntityFormComponent  -->
<g id="edge4" class="edge">
<title>EntityFormModule&#45;&gt;EntityFormComponent </title>
<path fill="none" stroke="black" stroke-dasharray="5,2" d="M302,-149.91C302,-149.91 302,-168.79 302,-168.79"/>
<polygon fill="black" stroke="black" points="298.5,-168.79 302,-178.79 305.5,-168.79 298.5,-168.79"/>
</g>
<!-- PermissionsModule -->
<g id="node3" class="node">
<title>PermissionsModule</title>
<polygon fill="#8dd3c7" stroke="black" points="429.71,-84.8 426.71,-88.8 405.71,-88.8 402.71,-84.8 302.29,-84.8 302.29,-48.8 429.71,-48.8 429.71,-84.8"/>
<text text-anchor="middle" x="366" y="-62.6" font-family="Times,serif" font-size="14.00">PermissionsModule</text>
</g>
<!-- PermissionsModule&#45;&gt;EntityFormModule -->
<g id="edge2" class="edge">
<title>PermissionsModule&#45;&gt;EntityFormModule</title>
<path fill="none" stroke="black" d="M333.22,-84.91C333.22,-84.91 333.22,-103.79 333.22,-103.79"/>
<polygon fill="black" stroke="black" points="329.72,-103.79 333.22,-113.79 336.72,-103.79 329.72,-103.79"/>
</g>
<!-- ViewModule -->
<g id="node4" class="node">
<title>ViewModule</title>
<polygon fill="#8dd3c7" stroke="black" points="283.87,-84.8 280.87,-88.8 259.87,-88.8 256.87,-84.8 194.13,-84.8 194.13,-48.8 283.87,-48.8 283.87,-84.8"/>
<text text-anchor="middle" x="239" y="-62.6" font-family="Times,serif" font-size="14.00">ViewModule</text>
</g>
<!-- ViewModule&#45;&gt;EntityFormModule -->
<g id="edge3" class="edge">
<title>ViewModule&#45;&gt;EntityFormModule</title>
<path fill="none" stroke="black" d="M261.94,-84.91C261.94,-84.91 261.94,-103.79 261.94,-103.79"/>
<polygon fill="black" stroke="black" points="258.44,-103.79 261.94,-113.79 265.44,-103.79 258.44,-103.79"/>
</g>
<!-- EntityFormService -->
<g id="node6" class="node">
<title>EntityFormService</title>
<ellipse fill="#fdb462" stroke="black" cx="539" cy="-66.8" rx="84.55" ry="18"/>
<text text-anchor="middle" x="539" y="-62.6" font-family="Times,serif" font-size="14.00">EntityFormService</text>
</g>
<!-- EntityFormService&#45;&gt;EntityFormModule -->
<g id="edge5" class="edge">
<title>EntityFormService&#45;&gt;EntityFormModule</title>
<path fill="none" stroke="black" d="M539,-84.91C539,-104.14 539,-131.8 539,-131.8 539,-131.8 374.27,-131.8 374.27,-131.8"/>
<polygon fill="black" stroke="black" points="374.27,-128.3 364.27,-131.8 374.27,-135.3 374.27,-128.3"/>
</g>
</g>
</svg>
