<?xml version="1.0" encoding="UTF-8" standalone="no"?>
<!DOCTYPE svg PUBLIC "-//W3C//DTD SVG 1.1//EN"
 "http://www.w3.org/Graphics/SVG/1.1/DTD/svg11.dtd">
<!-- Generated by graphviz version 2.47.3 (20210619.1520)
 -->
<!-- Title: dependencies Pages: 1 -->
<svg width="312pt" height="174pt"
 viewBox="0.00 0.00 312.00 173.80" xmlns="http://www.w3.org/2000/svg" xmlns:xlink="http://www.w3.org/1999/xlink">
<g id="graph0" class="graph" transform="scale(1 1) rotate(0) translate(4 169.8)">
<title>dependencies</title>
<polygon fill="white" stroke="transparent" points="-4,4 -4,-169.8 308,-169.8 308,4 -4,4"/>
<text text-anchor="middle" x="152" y="-8.2" font-family="sans-serif" font-size="14.00">dependencies</text>
<g id="clust1" class="cluster">
<title>cluster_DashboardModule</title>
<polygon fill="none" stroke="black" stroke-dasharray="1,5" points="8,-32.8 8,-157.8 296,-157.8 296,-32.8 8,-32.8"/>
</g>
<g id="clust2" class="cluster">
<title>cluster_DashboardModule_declarations</title>
<polygon fill="none" stroke="black" points="130,-40.8 130,-92.8 288,-92.8 288,-40.8 130,-40.8"/>
</g>
<g id="clust4" class="cluster">
<title>cluster_DashboardModule_imports</title>
<polygon fill="none" stroke="black" points="16,-40.8 16,-92.8 122,-92.8 122,-40.8 16,-40.8"/>
</g>
<!-- DashboardComponent -->
<g id="node1" class="node">
<title>DashboardComponent</title>
<polygon fill="#ffffb3" stroke="black" points="279.97,-84.8 138.03,-84.8 138.03,-48.8 279.97,-48.8 279.97,-84.8"/>
<text text-anchor="middle" x="209" y="-62.6" font-family="Times,serif" font-size="14.00">DashboardComponent</text>
</g>
<!-- DashboardModule -->
<g id="node2" class="node">
<title>DashboardModule</title>
<polygon fill="#8dd3c7" stroke="black" points="202.19,-149.8 199.19,-153.8 178.19,-153.8 175.19,-149.8 81.81,-149.8 81.81,-113.8 202.19,-113.8 202.19,-149.8"/>
<text text-anchor="middle" x="142" y="-127.6" font-family="Times,serif" font-size="14.00">DashboardModule</text>
</g>
<!-- DashboardComponent&#45;&gt;DashboardModule -->
<g id="edge1" class="edge">
<title>DashboardComponent&#45;&gt;DashboardModule</title>
<path fill="none" stroke="black" d="M170.05,-84.91C170.05,-84.91 170.05,-103.79 170.05,-103.79"/>
<polygon fill="black" stroke="black" points="166.55,-103.79 170.05,-113.79 173.55,-103.79 166.55,-103.79"/>
</g>
<!-- ViewModule -->
<g id="node3" class="node">
<title>ViewModule</title>
<polygon fill="#8dd3c7" stroke="black" points="113.87,-84.8 110.87,-88.8 89.87,-88.8 86.87,-84.8 24.13,-84.8 24.13,-48.8 113.87,-48.8 113.87,-84.8"/>
<text text-anchor="middle" x="69" y="-62.6" font-family="Times,serif" font-size="14.00">ViewModule</text>
</g>
<!-- ViewModule&#45;&gt;DashboardModule -->
<g id="edge2" class="edge">
<title>ViewModule&#45;&gt;DashboardModule</title>
<path fill="none" stroke="black" d="M97.92,-84.91C97.92,-84.91 97.92,-103.79 97.92,-103.79"/>
<polygon fill="black" stroke="black" points="94.42,-103.79 97.92,-113.79 101.42,-103.79 94.42,-103.79"/>
</g>
</g>
</svg>
