<?xml version="1.0" encoding="UTF-8" standalone="no"?>
<!DOCTYPE svg PUBLIC "-//W3C//DTD SVG 1.1//EN"
 "http://www.w3.org/Graphics/SVG/1.1/DTD/svg11.dtd">
<!-- Generated by graphviz version 2.47.3 (20210619.1520)
 -->
<!-- Title: dependencies Pages: 1 -->
<svg width="532pt" height="174pt"
 viewBox="0.00 0.00 532.00 173.80" xmlns="http://www.w3.org/2000/svg" xmlns:xlink="http://www.w3.org/1999/xlink">
<g id="graph0" class="graph" transform="scale(1 1) rotate(0) translate(4 169.8)">
<title>dependencies</title>
<polygon fill="white" stroke="transparent" points="-4,4 -4,-169.8 528,-169.8 528,4 -4,4"/>
<text text-anchor="middle" x="262" y="-8.2" font-family="sans-serif" font-size="14.00">dependencies</text>
<g id="clust1" class="cluster">
<title>cluster_UserModule</title>
<polygon fill="none" stroke="black" stroke-dasharray="1,5" points="8,-32.8 8,-157.8 516,-157.8 516,-32.8 8,-32.8"/>
</g>
<g id="clust2" class="cluster">
<title>cluster_UserModule_declarations</title>
<polygon fill="none" stroke="black" points="336,-40.8 336,-92.8 508,-92.8 508,-40.8 336,-40.8"/>
</g>
<g id="clust4" class="cluster">
<title>cluster_UserModule_imports</title>
<polygon fill="none" stroke="black" points="16,-40.8 16,-92.8 328,-92.8 328,-40.8 16,-40.8"/>
</g>
<!-- UserAccountComponent -->
<g id="node1" class="node">
<title>UserAccountComponent</title>
<polygon fill="#ffffb3" stroke="black" points="499.69,-84.8 344.31,-84.8 344.31,-48.8 499.69,-48.8 499.69,-84.8"/>
<text text-anchor="middle" x="422" y="-62.6" font-family="Times,serif" font-size="14.00">UserAccountComponent</text>
</g>
<!-- UserModule -->
<g id="node2" class="node">
<title>UserModule</title>
<polygon fill="#8dd3c7" stroke="black" points="276.98,-149.8 273.98,-153.8 252.98,-153.8 249.98,-149.8 191.02,-149.8 191.02,-113.8 276.98,-113.8 276.98,-149.8"/>
<text text-anchor="middle" x="234" y="-127.6" font-family="Times,serif" font-size="14.00">UserModule</text>
</g>
<!-- UserAccountComponent&#45;&gt;UserModule -->
<g id="edge1" class="edge">
<title>UserAccountComponent&#45;&gt;UserModule</title>
<path fill="none" stroke="black" d="M422,-84.91C422,-104.14 422,-131.8 422,-131.8 422,-131.8 287.13,-131.8 287.13,-131.8"/>
<polygon fill="black" stroke="black" points="287.13,-128.3 277.13,-131.8 287.13,-135.3 287.13,-128.3"/>
</g>
<!-- FontAwesomeIconsModule -->
<g id="node3" class="node">
<title>FontAwesomeIconsModule</title>
<polygon fill="#8dd3c7" stroke="black" points="319.52,-84.8 316.52,-88.8 295.52,-88.8 292.52,-84.8 148.48,-84.8 148.48,-48.8 319.52,-48.8 319.52,-84.8"/>
<text text-anchor="middle" x="234" y="-62.6" font-family="Times,serif" font-size="14.00">FontAwesomeIconsModule</text>
</g>
<!-- FontAwesomeIconsModule&#45;&gt;UserModule -->
<g id="edge2" class="edge">
<title>FontAwesomeIconsModule&#45;&gt;UserModule</title>
<path fill="none" stroke="black" d="M234,-84.91C234,-84.91 234,-103.79 234,-103.79"/>
<polygon fill="black" stroke="black" points="230.5,-103.79 234,-113.79 237.5,-103.79 230.5,-103.79"/>
</g>
<!-- WebdavModule -->
<g id="node4" class="node">
<title>WebdavModule</title>
<polygon fill="#8dd3c7" stroke="black" points="130.19,-84.8 127.19,-88.8 106.19,-88.8 103.19,-84.8 23.81,-84.8 23.81,-48.8 130.19,-48.8 130.19,-84.8"/>
<text text-anchor="middle" x="77" y="-62.6" font-family="Times,serif" font-size="14.00">WebdavModule</text>
</g>
<!-- WebdavModule&#45;&gt;UserModule -->
<g id="edge3" class="edge">
<title>WebdavModule&#45;&gt;UserModule</title>
<path fill="none" stroke="black" d="M77,-84.91C77,-104.14 77,-131.8 77,-131.8 77,-131.8 180.68,-131.8 180.68,-131.8"/>
<polygon fill="black" stroke="black" points="180.68,-135.3 190.68,-131.8 180.68,-128.3 180.68,-135.3"/>
</g>
</g>
</svg>
