<?xml version="1.0" encoding="UTF-8" standalone="no"?>
<!DOCTYPE svg PUBLIC "-//W3C//DTD SVG 1.1//EN"
 "http://www.w3.org/Graphics/SVG/1.1/DTD/svg11.dtd">
<!-- Generated by graphviz version 2.47.3 (20210619.1520)
 -->
<!-- Title: dependencies Pages: 1 -->
<svg width="1308pt" height="247pt"
 viewBox="0.00 0.00 1308.00 246.80" xmlns="http://www.w3.org/2000/svg" xmlns:xlink="http://www.w3.org/1999/xlink">
<g id="graph0" class="graph" transform="scale(1 1) rotate(0) translate(4 242.8)">
<title>dependencies</title>
<polygon fill="white" stroke="transparent" points="-4,4 -4,-242.8 1304,-242.8 1304,4 -4,4"/>
<text text-anchor="middle" x="650" y="-8.2" font-family="sans-serif" font-size="14.00">dependencies</text>
<g id="clust1" class="cluster">
<title>cluster_LatestChangesModule</title>
<polygon fill="none" stroke="black" stroke-dasharray="1,5" points="8,-32.8 8,-230.8 1292,-230.8 1292,-32.8 8,-32.8"/>
</g>
<g id="clust5" class="cluster">
<title>cluster_LatestChangesModule_imports</title>
<polygon fill="none" stroke="black" points="1054,-40.8 1054,-92.8 1284,-92.8 1284,-40.8 1054,-40.8"/>
</g>
<g id="clust2" class="cluster">
<title>cluster_LatestChangesModule_declarations</title>
<polygon fill="none" stroke="black" points="720,-40.8 720,-92.8 1046,-92.8 1046,-40.8 720,-40.8"/>
</g>
<g id="clust8" class="cluster">
<title>cluster_LatestChangesModule_providers</title>
<polygon fill="none" stroke="black" points="16,-40.8 16,-92.8 712,-92.8 712,-40.8 16,-40.8"/>
</g>
<g id="clust6" class="cluster">
<title>cluster_LatestChangesModule_exports</title>
<polygon fill="none" stroke="black" points="714,-170.8 714,-222.8 884,-222.8 884,-170.8 714,-170.8"/>
</g>
<!-- AppVersionComponent -->
<g id="node1" class="node">
<title>AppVersionComponent</title>
<polygon fill="#ffffb3" stroke="black" points="1037.76,-84.8 888.24,-84.8 888.24,-48.8 1037.76,-48.8 1037.76,-84.8"/>
<text text-anchor="middle" x="963" y="-62.6" font-family="Times,serif" font-size="14.00">AppVersionComponent</text>
</g>
<!-- LatestChangesModule -->
<g id="node3" class="node">
<title>LatestChangesModule</title>
<polygon fill="#8dd3c7" stroke="black" points="869.97,-149.8 866.97,-153.8 845.97,-153.8 842.97,-149.8 728.03,-149.8 728.03,-113.8 869.97,-113.8 869.97,-149.8"/>
<text text-anchor="middle" x="799" y="-127.6" font-family="Times,serif" font-size="14.00">LatestChangesModule</text>
</g>
<!-- AppVersionComponent&#45;&gt;LatestChangesModule -->
<g id="edge1" class="edge">
<title>AppVersionComponent&#45;&gt;LatestChangesModule</title>
<path fill="none" stroke="black" d="M963,-84.83C963,-101.2 963,-122.8 963,-122.8 963,-122.8 879.98,-122.8 879.98,-122.8"/>
<polygon fill="black" stroke="black" points="879.98,-119.3 869.98,-122.8 879.98,-126.3 879.98,-119.3"/>
</g>
<!-- ChangelogComponent -->
<g id="node2" class="node">
<title>ChangelogComponent</title>
<polygon fill="#ffffb3" stroke="black" points="869.99,-84.8 728.01,-84.8 728.01,-48.8 869.99,-48.8 869.99,-84.8"/>
<text text-anchor="middle" x="799" y="-62.6" font-family="Times,serif" font-size="14.00">ChangelogComponent</text>
</g>
<!-- ChangelogComponent&#45;&gt;LatestChangesModule -->
<g id="edge2" class="edge">
<title>ChangelogComponent&#45;&gt;LatestChangesModule</title>
<path fill="none" stroke="black" d="M799,-84.91C799,-84.91 799,-103.79 799,-103.79"/>
<polygon fill="black" stroke="black" points="795.5,-103.79 799,-113.79 802.5,-103.79 795.5,-103.79"/>
</g>
<!-- AppVersionComponent  -->
<g id="node6" class="node">
<title>AppVersionComponent </title>
<polygon fill="#fb8072" stroke="black" points="875.76,-214.8 722.24,-214.8 722.24,-178.8 875.76,-178.8 875.76,-214.8"/>
<text text-anchor="middle" x="799" y="-192.6" font-family="Times,serif" font-size="14.00">AppVersionComponent </text>
</g>
<!-- LatestChangesModule&#45;&gt;AppVersionComponent  -->
<g id="edge5" class="edge">
<title>LatestChangesModule&#45;&gt;AppVersionComponent </title>
<path fill="none" stroke="black" stroke-dasharray="5,2" d="M799,-149.91C799,-149.91 799,-168.79 799,-168.79"/>
<polygon fill="black" stroke="black" points="795.5,-168.79 799,-178.79 802.5,-168.79 795.5,-168.79"/>
</g>
<!-- AlertsModule -->
<g id="node4" class="node">
<title>AlertsModule</title>
<polygon fill="#8dd3c7" stroke="black" points="1275.76,-84.8 1272.76,-88.8 1251.76,-88.8 1248.76,-84.8 1182.24,-84.8 1182.24,-48.8 1275.76,-48.8 1275.76,-84.8"/>
<text text-anchor="middle" x="1229" y="-62.6" font-family="Times,serif" font-size="14.00">AlertsModule</text>
</g>
<!-- AlertsModule&#45;&gt;LatestChangesModule -->
<g id="edge3" class="edge">
<title>AlertsModule&#45;&gt;LatestChangesModule</title>
<path fill="none" stroke="black" d="M1229,-85.09C1229,-107.01 1229,-140.8 1229,-140.8 1229,-140.8 880.01,-140.8 880.01,-140.8"/>
<polygon fill="black" stroke="black" points="880.01,-137.3 870.01,-140.8 880.01,-144.3 880.01,-137.3"/>
</g>
<!-- SessionModule -->
<g id="node5" class="node">
<title>SessionModule</title>
<polygon fill="#8dd3c7" stroke="black" points="1164.33,-84.8 1161.33,-88.8 1140.33,-88.8 1137.33,-84.8 1061.67,-84.8 1061.67,-48.8 1164.33,-48.8 1164.33,-84.8"/>
<text text-anchor="middle" x="1113" y="-62.6" font-family="Times,serif" font-size="14.00">SessionModule</text>
</g>
<!-- SessionModule&#45;&gt;LatestChangesModule -->
<g id="edge4" class="edge">
<title>SessionModule&#45;&gt;LatestChangesModule</title>
<path fill="none" stroke="black" d="M1113,-84.91C1113,-104.14 1113,-131.8 1113,-131.8 1113,-131.8 880.25,-131.8 880.25,-131.8"/>
<polygon fill="black" stroke="black" points="880.25,-128.3 870.25,-131.8 880.25,-135.3 880.25,-128.3"/>
</g>
<!-- LatestChangesDialogService -->
<g id="node7" class="node">
<title>LatestChangesDialogService</title>
<ellipse fill="#fdb462" stroke="black" cx="581" cy="-66.8" rx="123.25" ry="18"/>
<text text-anchor="middle" x="581" y="-62.6" font-family="Times,serif" font-size="14.00">LatestChangesDialogService</text>
</g>
<!-- LatestChangesDialogService&#45;&gt;LatestChangesModule -->
<g id="edge6" class="edge">
<title>LatestChangesDialogService&#45;&gt;LatestChangesModule</title>
<path fill="none" stroke="black" d="M581,-84.83C581,-101.2 581,-122.8 581,-122.8 581,-122.8 717.92,-122.8 717.92,-122.8"/>
<polygon fill="black" stroke="black" points="717.92,-126.3 727.92,-122.8 717.92,-119.3 717.92,-126.3"/>
</g>
<!-- LatestChangesService -->
<g id="node8" class="node">
<title>LatestChangesService</title>
<ellipse fill="#fdb462" stroke="black" cx="343" cy="-66.8" rx="96.68" ry="18"/>
<text text-anchor="middle" x="343" y="-62.6" font-family="Times,serif" font-size="14.00">LatestChangesService</text>
</g>
<!-- LatestChangesService&#45;&gt;LatestChangesModule -->
<g id="edge7" class="edge">
<title>LatestChangesService&#45;&gt;LatestChangesModule</title>
<path fill="none" stroke="black" d="M343,-84.91C343,-104.14 343,-131.8 343,-131.8 343,-131.8 717.75,-131.8 717.75,-131.8"/>
<polygon fill="black" stroke="black" points="717.75,-135.3 727.75,-131.8 717.75,-128.3 717.75,-135.3"/>
</g>
<!-- UpdateManagerService -->
<g id="node9" class="node">
<title>UpdateManagerService</title>
<ellipse fill="#fdb462" stroke="black" cx="126" cy="-66.8" rx="102.39" ry="18"/>
<text text-anchor="middle" x="126" y="-62.6" font-family="Times,serif" font-size="14.00">UpdateManagerService</text>
</g>
<!-- UpdateManagerService&#45;&gt;LatestChangesModule -->
<g id="edge8" class="edge">
<title>UpdateManagerService&#45;&gt;LatestChangesModule</title>
<path fill="none" stroke="black" d="M126,-85.09C126,-107.01 126,-140.8 126,-140.8 126,-140.8 717.93,-140.8 717.93,-140.8"/>
<polygon fill="black" stroke="black" points="717.93,-144.3 727.93,-140.8 717.93,-137.3 717.93,-144.3"/>
</g>
</g>
</svg>
