<?xml version="1.0" encoding="UTF-8" standalone="no"?>
<!DOCTYPE svg PUBLIC "-//W3C//DTD SVG 1.1//EN"
 "http://www.w3.org/Graphics/SVG/1.1/DTD/svg11.dtd">
<!-- Generated by graphviz version 2.47.3 (20210619.1520)
 -->
<!-- Title: dependencies Pages: 1 -->
<svg width="1680pt" height="247pt"
 viewBox="0.00 0.00 1680.00 246.80" xmlns="http://www.w3.org/2000/svg" xmlns:xlink="http://www.w3.org/1999/xlink">
<g id="graph0" class="graph" transform="scale(1 1) rotate(0) translate(4 242.8)">
<title>dependencies</title>
<polygon fill="white" stroke="transparent" points="-4,4 -4,-242.8 1676,-242.8 1676,4 -4,4"/>
<text text-anchor="middle" x="836" y="-8.2" font-family="sans-serif" font-size="14.00">dependencies</text>
<g id="clust1" class="cluster">
<title>cluster_UiModule</title>
<polygon fill="none" stroke="black" stroke-dasharray="1,5" points="8,-32.8 8,-230.8 1664,-230.8 1664,-32.8 8,-32.8"/>
</g>
<g id="clust7" class="cluster">
<title>cluster_UiModule_exports</title>
<polygon fill="none" stroke="black" points="785,-170.8 785,-222.8 899,-222.8 899,-170.8 785,-170.8"/>
</g>
<g id="clust6" class="cluster">
<title>cluster_UiModule_imports</title>
<polygon fill="none" stroke="black" points="455,-40.8 455,-92.8 1656,-92.8 1656,-40.8 455,-40.8"/>
</g>
<g id="clust2" class="cluster">
<title>cluster_UiModule_declarations</title>
<polygon fill="none" stroke="black" points="16,-40.8 16,-92.8 447,-92.8 447,-40.8 16,-40.8"/>
</g>
<!-- PrimaryActionComponent -->
<g id="node1" class="node">
<title>PrimaryActionComponent</title>
<polygon fill="#ffffb3" stroke="black" points="439.04,-84.8 274.96,-84.8 274.96,-48.8 439.04,-48.8 439.04,-84.8"/>
<text text-anchor="middle" x="357" y="-62.6" font-family="Times,serif" font-size="14.00">PrimaryActionComponent</text>
</g>
<!-- UiModule -->
<g id="node4" class="node">
<title>UiModule</title>
<polygon fill="#8dd3c7" stroke="black" points="878.55,-149.8 875.55,-153.8 854.55,-153.8 851.55,-149.8 805.45,-149.8 805.45,-113.8 878.55,-113.8 878.55,-149.8"/>
<text text-anchor="middle" x="842" y="-127.6" font-family="Times,serif" font-size="14.00">UiModule</text>
</g>
<!-- PrimaryActionComponent&#45;&gt;UiModule -->
<g id="edge1" class="edge">
<title>PrimaryActionComponent&#45;&gt;UiModule</title>
<path fill="none" stroke="black" d="M357,-84.91C357,-104.14 357,-131.8 357,-131.8 357,-131.8 795.15,-131.8 795.15,-131.8"/>
<polygon fill="black" stroke="black" points="795.15,-135.3 805.15,-131.8 795.15,-128.3 795.15,-135.3"/>
</g>
<!-- SearchComponent -->
<g id="node2" class="node">
<title>SearchComponent</title>
<polygon fill="#ffffb3" stroke="black" points="256.92,-84.8 137.08,-84.8 137.08,-48.8 256.92,-48.8 256.92,-84.8"/>
<text text-anchor="middle" x="197" y="-62.6" font-family="Times,serif" font-size="14.00">SearchComponent</text>
</g>
<!-- SearchComponent&#45;&gt;UiModule -->
<g id="edge2" class="edge">
<title>SearchComponent&#45;&gt;UiModule</title>
<path fill="none" stroke="black" d="M197,-85.08C197,-106.12 197,-137.8 197,-137.8 197,-137.8 795.01,-137.8 795.01,-137.8"/>
<polygon fill="black" stroke="black" points="795.01,-141.3 805.01,-137.8 795.01,-134.3 795.01,-141.3"/>
</g>
<!-- UiComponent -->
<g id="node3" class="node">
<title>UiComponent</title>
<polygon fill="#ffffb3" stroke="black" points="119.83,-84.8 24.17,-84.8 24.17,-48.8 119.83,-48.8 119.83,-84.8"/>
<text text-anchor="middle" x="72" y="-62.6" font-family="Times,serif" font-size="14.00">UiComponent</text>
</g>
<!-- UiComponent&#45;&gt;UiModule -->
<g id="edge3" class="edge">
<title>UiComponent&#45;&gt;UiModule</title>
<path fill="none" stroke="black" d="M72,-85.05C72,-107.82 72,-143.8 72,-143.8 72,-143.8 795.38,-143.8 795.38,-143.8"/>
<polygon fill="black" stroke="black" points="795.38,-147.3 805.38,-143.8 795.38,-140.3 795.38,-147.3"/>
</g>
<!-- UiComponent  -->
<g id="node14" class="node">
<title>UiComponent </title>
<polygon fill="#fb8072" stroke="black" points="891.33,-214.8 792.67,-214.8 792.67,-178.8 891.33,-178.8 891.33,-214.8"/>
<text text-anchor="middle" x="842" y="-192.6" font-family="Times,serif" font-size="14.00">UiComponent </text>
</g>
<!-- UiModule&#45;&gt;UiComponent  -->
<g id="edge13" class="edge">
<title>UiModule&#45;&gt;UiComponent </title>
<path fill="none" stroke="black" stroke-dasharray="5,2" d="M842,-149.91C842,-149.91 842,-168.79 842,-168.79"/>
<polygon fill="black" stroke="black" points="838.5,-168.79 842,-178.79 845.5,-168.79 838.5,-168.79"/>
</g>
<!-- ChildrenModule -->
<g id="node5" class="node">
<title>ChildrenModule</title>
<polygon fill="#8dd3c7" stroke="black" points="1648.04,-84.8 1645.04,-88.8 1624.04,-88.8 1621.04,-84.8 1539.96,-84.8 1539.96,-48.8 1648.04,-48.8 1648.04,-84.8"/>
<text text-anchor="middle" x="1594" y="-62.6" font-family="Times,serif" font-size="14.00">ChildrenModule</text>
</g>
<!-- ChildrenModule&#45;&gt;UiModule -->
<g id="edge4" class="edge">
<title>ChildrenModule&#45;&gt;UiModule</title>
<path fill="none" stroke="black" d="M1594,-85.05C1594,-107.82 1594,-143.8 1594,-143.8 1594,-143.8 888.78,-143.8 888.78,-143.8"/>
<polygon fill="black" stroke="black" points="888.78,-140.3 878.78,-143.8 888.78,-147.3 888.78,-140.3"/>
</g>
<!-- EntityUtilsModule -->
<g id="node6" class="node">
<title>EntityUtilsModule</title>
<polygon fill="#8dd3c7" stroke="black" points="1521.5,-84.8 1518.5,-88.8 1497.5,-88.8 1494.5,-84.8 1400.5,-84.8 1400.5,-48.8 1521.5,-48.8 1521.5,-84.8"/>
<text text-anchor="middle" x="1461" y="-62.6" font-family="Times,serif" font-size="14.00">EntityUtilsModule</text>
</g>
<!-- EntityUtilsModule&#45;&gt;UiModule -->
<g id="edge5" class="edge">
<title>EntityUtilsModule&#45;&gt;UiModule</title>
<path fill="none" stroke="black" d="M1461,-85.08C1461,-106.12 1461,-137.8 1461,-137.8 1461,-137.8 888.87,-137.8 888.87,-137.8"/>
<polygon fill="black" stroke="black" points="888.87,-134.3 878.87,-137.8 888.87,-141.3 888.87,-134.3"/>
</g>
<!-- LatestChangesModule -->
<g id="node7" class="node">
<title>LatestChangesModule</title>
<polygon fill="#8dd3c7" stroke="black" points="1382.97,-84.8 1379.97,-88.8 1358.97,-88.8 1355.97,-84.8 1241.03,-84.8 1241.03,-48.8 1382.97,-48.8 1382.97,-84.8"/>
<text text-anchor="middle" x="1312" y="-62.6" font-family="Times,serif" font-size="14.00">LatestChangesModule</text>
</g>
<!-- LatestChangesModule&#45;&gt;UiModule -->
<g id="edge6" class="edge">
<title>LatestChangesModule&#45;&gt;UiModule</title>
<path fill="none" stroke="black" d="M1312,-84.91C1312,-104.14 1312,-131.8 1312,-131.8 1312,-131.8 888.88,-131.8 888.88,-131.8"/>
<polygon fill="black" stroke="black" points="888.88,-128.3 878.88,-131.8 888.88,-135.3 888.88,-128.3"/>
</g>
<!-- NavigationModule -->
<g id="node8" class="node">
<title>NavigationModule</title>
<polygon fill="#8dd3c7" stroke="black" points="1222.76,-84.8 1219.76,-88.8 1198.76,-88.8 1195.76,-84.8 1101.24,-84.8 1101.24,-48.8 1222.76,-48.8 1222.76,-84.8"/>
<text text-anchor="middle" x="1162" y="-62.6" font-family="Times,serif" font-size="14.00">NavigationModule</text>
</g>
<!-- NavigationModule&#45;&gt;UiModule -->
<g id="edge7" class="edge">
<title>NavigationModule&#45;&gt;UiModule</title>
<path fill="none" stroke="black" d="M1162,-84.82C1162,-102.17 1162,-125.8 1162,-125.8 1162,-125.8 888.71,-125.8 888.71,-125.8"/>
<polygon fill="black" stroke="black" points="888.71,-122.3 878.71,-125.8 888.71,-129.3 888.71,-122.3"/>
</g>
<!-- NotesModule -->
<g id="node9" class="node">
<title>NotesModule</title>
<polygon fill="#8dd3c7" stroke="black" points="1083.21,-84.8 1080.21,-88.8 1059.21,-88.8 1056.21,-84.8 990.79,-84.8 990.79,-48.8 1083.21,-48.8 1083.21,-84.8"/>
<text text-anchor="middle" x="1037" y="-62.6" font-family="Times,serif" font-size="14.00">NotesModule</text>
</g>
<!-- NotesModule&#45;&gt;UiModule -->
<g id="edge8" class="edge">
<title>NotesModule&#45;&gt;UiModule</title>
<path fill="none" stroke="black" d="M1037,-85.04C1037,-100.37 1037,-119.8 1037,-119.8 1037,-119.8 888.68,-119.8 888.68,-119.8"/>
<polygon fill="black" stroke="black" points="888.68,-116.3 878.68,-119.8 888.68,-123.3 888.68,-116.3"/>
</g>
<!-- PermissionsModule -->
<g id="node10" class="node">
<title>PermissionsModule</title>
<polygon fill="#8dd3c7" stroke="black" points="972.71,-84.8 969.71,-88.8 948.71,-88.8 945.71,-84.8 845.29,-84.8 845.29,-48.8 972.71,-48.8 972.71,-84.8"/>
<text text-anchor="middle" x="909" y="-62.6" font-family="Times,serif" font-size="14.00">PermissionsModule</text>
</g>
<!-- PermissionsModule&#45;&gt;UiModule -->
<g id="edge9" class="edge">
<title>PermissionsModule&#45;&gt;UiModule</title>
<path fill="none" stroke="black" d="M862.08,-84.91C862.08,-84.91 862.08,-103.79 862.08,-103.79"/>
<polygon fill="black" stroke="black" points="858.58,-103.79 862.08,-113.79 865.58,-103.79 858.58,-103.79"/>
</g>
<!-- SchoolsModule -->
<g id="node11" class="node">
<title>SchoolsModule</title>
<polygon fill="#8dd3c7" stroke="black" points="826.88,-84.8 823.88,-88.8 802.88,-88.8 799.88,-84.8 723.12,-84.8 723.12,-48.8 826.88,-48.8 826.88,-84.8"/>
<text text-anchor="middle" x="775" y="-62.6" font-family="Times,serif" font-size="14.00">SchoolsModule</text>
</g>
<!-- SchoolsModule&#45;&gt;UiModule -->
<g id="edge10" class="edge">
<title>SchoolsModule&#45;&gt;UiModule</title>
<path fill="none" stroke="black" d="M816.08,-84.91C816.08,-84.91 816.08,-103.79 816.08,-103.79"/>
<polygon fill="black" stroke="black" points="812.58,-103.79 816.08,-113.79 819.58,-103.79 812.58,-103.79"/>
</g>
<!-- SessionModule -->
<g id="node12" class="node">
<title>SessionModule</title>
<polygon fill="#8dd3c7" stroke="black" points="705.33,-84.8 702.33,-88.8 681.33,-88.8 678.33,-84.8 602.67,-84.8 602.67,-48.8 705.33,-48.8 705.33,-84.8"/>
<text text-anchor="middle" x="654" y="-62.6" font-family="Times,serif" font-size="14.00">SessionModule</text>
</g>
<!-- SessionModule&#45;&gt;UiModule -->
<g id="edge11" class="edge">
<title>SessionModule&#45;&gt;UiModule</title>
<path fill="none" stroke="black" d="M654,-85.04C654,-100.37 654,-119.8 654,-119.8 654,-119.8 795.31,-119.8 795.31,-119.8"/>
<polygon fill="black" stroke="black" points="795.31,-123.3 805.31,-119.8 795.31,-116.3 795.31,-123.3"/>
</g>
<!-- SyncStatusModule -->
<g id="node13" class="node">
<title>SyncStatusModule</title>
<polygon fill="#8dd3c7" stroke="black" points="584.77,-84.8 581.77,-88.8 560.77,-88.8 557.77,-84.8 463.23,-84.8 463.23,-48.8 584.77,-48.8 584.77,-84.8"/>
<text text-anchor="middle" x="524" y="-62.6" font-family="Times,serif" font-size="14.00">SyncStatusModule</text>
</g>
<!-- SyncStatusModule&#45;&gt;UiModule -->
<g id="edge12" class="edge">
<title>SyncStatusModule&#45;&gt;UiModule</title>
<path fill="none" stroke="black" d="M524,-84.82C524,-102.17 524,-125.8 524,-125.8 524,-125.8 795.21,-125.8 795.21,-125.8"/>
<polygon fill="black" stroke="black" points="795.21,-129.3 805.21,-125.8 795.21,-122.3 795.21,-129.3"/>
</g>
</g>
</svg>
