<?xml version="1.0" encoding="UTF-8" standalone="no"?>
<!DOCTYPE svg PUBLIC "-//W3C//DTD SVG 1.1//EN"
 "http://www.w3.org/Graphics/SVG/1.1/DTD/svg11.dtd">
<!-- Generated by graphviz version 2.47.3 (20210619.1520)
 -->
<!-- Title: dependencies Pages: 1 -->
<svg width="378pt" height="174pt"
 viewBox="0.00 0.00 378.00 173.80" xmlns="http://www.w3.org/2000/svg" xmlns:xlink="http://www.w3.org/1999/xlink">
<g id="graph0" class="graph" transform="scale(1 1) rotate(0) translate(4 169.8)">
<title>dependencies</title>
<polygon fill="white" stroke="transparent" points="-4,4 -4,-169.8 374,-169.8 374,4 -4,4"/>
<text text-anchor="middle" x="185" y="-8.2" font-family="sans-serif" font-size="14.00">dependencies</text>
<g id="clust1" class="cluster">
<title>cluster_ProgressDashboardWidgetModule</title>
<polygon fill="none" stroke="black" stroke-dasharray="1,5" points="8,-32.8 8,-157.8 362,-157.8 362,-32.8 8,-32.8"/>
</g>
<g id="clust4" class="cluster">
<title>cluster_ProgressDashboardWidgetModule_imports</title>
<polygon fill="none" stroke="black" points="230,-40.8 230,-92.8 354,-92.8 354,-40.8 230,-40.8"/>
</g>
<g id="clust2" class="cluster">
<title>cluster_ProgressDashboardWidgetModule_declarations</title>
<polygon fill="none" stroke="black" points="16,-40.8 16,-92.8 222,-92.8 222,-40.8 16,-40.8"/>
</g>
<!-- ProgressDashboardComponent -->
<g id="node1" class="node">
<title>ProgressDashboardComponent</title>
<polygon fill="#ffffb3" stroke="black" points="214.18,-84.8 23.82,-84.8 23.82,-48.8 214.18,-48.8 214.18,-84.8"/>
<text text-anchor="middle" x="119" y="-62.6" font-family="Times,serif" font-size="14.00">ProgressDashboardComponent</text>
</g>
<!-- ProgressDashboardWidgetModule -->
<g id="node2" class="node">
<title>ProgressDashboardWidgetModule</title>
<polygon fill="#8dd3c7" stroke="black" points="289.61,-149.8 286.61,-153.8 265.61,-153.8 262.61,-149.8 80.39,-149.8 80.39,-113.8 289.61,-113.8 289.61,-149.8"/>
<text text-anchor="middle" x="185" y="-127.6" font-family="Times,serif" font-size="14.00">ProgressDashboardWidgetModule</text>
</g>
<!-- ProgressDashboardComponent&#45;&gt;ProgressDashboardWidgetModule -->
<g id="edge1" class="edge">
<title>ProgressDashboardComponent&#45;&gt;ProgressDashboardWidgetModule</title>
<path fill="none" stroke="black" d="M147.14,-84.91C147.14,-84.91 147.14,-103.79 147.14,-103.79"/>
<polygon fill="black" stroke="black" points="143.64,-103.79 147.14,-113.79 150.64,-103.79 143.64,-103.79"/>
</g>
<!-- ChildrenModule -->
<g id="node3" class="node">
<title>ChildrenModule</title>
<polygon fill="#8dd3c7" stroke="black" points="346.04,-84.8 343.04,-88.8 322.04,-88.8 319.04,-84.8 237.96,-84.8 237.96,-48.8 346.04,-48.8 346.04,-84.8"/>
<text text-anchor="middle" x="292" y="-62.6" font-family="Times,serif" font-size="14.00">ChildrenModule</text>
</g>
<!-- ChildrenModule&#45;&gt;ProgressDashboardWidgetModule -->
<g id="edge2" class="edge">
<title>ChildrenModule&#45;&gt;ProgressDashboardWidgetModule</title>
<path fill="none" stroke="black" d="M263.77,-84.91C263.77,-84.91 263.77,-103.79 263.77,-103.79"/>
<polygon fill="black" stroke="black" points="260.27,-103.79 263.77,-113.79 267.27,-103.79 260.27,-103.79"/>
</g>
</g>
</svg>
