<?xml version="1.0" encoding="UTF-8" standalone="no"?>
<!DOCTYPE svg PUBLIC "-//W3C//DTD SVG 1.1//EN"
 "http://www.w3.org/Graphics/SVG/1.1/DTD/svg11.dtd">
<!-- Generated by graphviz version 2.47.3 (20210619.1520)
 -->
<!-- Title: dependencies Pages: 1 -->
<svg width="1055pt" height="247pt"
 viewBox="0.00 0.00 1055.00 246.80" xmlns="http://www.w3.org/2000/svg" xmlns:xlink="http://www.w3.org/1999/xlink">
<g id="graph0" class="graph" transform="scale(1 1) rotate(0) translate(4 242.8)">
<title>dependencies</title>
<polygon fill="white" stroke="transparent" points="-4,4 -4,-242.8 1051,-242.8 1051,4 -4,4"/>
<text text-anchor="middle" x="523.5" y="-8.2" font-family="sans-serif" font-size="14.00">dependencies</text>
<g id="clust1" class="cluster">
<title>cluster_SchoolsModule</title>
<polygon fill="none" stroke="black" stroke-dasharray="1,5" points="8,-32.8 8,-230.8 1039,-230.8 1039,-32.8 8,-32.8"/>
</g>
<g id="clust7" class="cluster">
<title>cluster_SchoolsModule_exports</title>
<polygon fill="none" stroke="black" points="440,-170.8 440,-222.8 614,-222.8 614,-170.8 440,-170.8"/>
</g>
<g id="clust6" class="cluster">
<title>cluster_SchoolsModule_imports</title>
<polygon fill="none" stroke="black" points="730,-40.8 730,-92.8 1031,-92.8 1031,-40.8 730,-40.8"/>
</g>
<g id="clust2" class="cluster">
<title>cluster_SchoolsModule_declarations</title>
<polygon fill="none" stroke="black" points="182,-40.8 182,-92.8 722,-92.8 722,-40.8 182,-40.8"/>
</g>
<g id="clust9" class="cluster">
<title>cluster_SchoolsModule_providers</title>
<polygon fill="none" stroke="black" points="16,-40.8 16,-92.8 174,-92.8 174,-40.8 16,-40.8"/>
</g>
<!-- ChildrenOverviewComponent -->
<g id="node1" class="node">
<title>ChildrenOverviewComponent</title>
<polygon fill="#ffffb3" stroke="black" points="713.52,-84.8 528.48,-84.8 528.48,-48.8 713.52,-48.8 713.52,-84.8"/>
<text text-anchor="middle" x="621" y="-62.6" font-family="Times,serif" font-size="14.00">ChildrenOverviewComponent</text>
</g>
<!-- SchoolsModule -->
<g id="node4" class="node">
<title>SchoolsModule</title>
<polygon fill="#8dd3c7" stroke="black" points="578.88,-149.8 575.88,-153.8 554.88,-153.8 551.88,-149.8 475.12,-149.8 475.12,-113.8 578.88,-113.8 578.88,-149.8"/>
<text text-anchor="middle" x="527" y="-127.6" font-family="Times,serif" font-size="14.00">SchoolsModule</text>
</g>
<!-- ChildrenOverviewComponent&#45;&gt;SchoolsModule -->
<g id="edge1" class="edge">
<title>ChildrenOverviewComponent&#45;&gt;SchoolsModule</title>
<path fill="none" stroke="black" d="M553.59,-84.91C553.59,-84.91 553.59,-103.79 553.59,-103.79"/>
<polygon fill="black" stroke="black" points="550.09,-103.79 553.59,-113.79 557.09,-103.79 550.09,-103.79"/>
</g>
<!-- SchoolBlockComponent -->
<g id="node2" class="node">
<title>SchoolBlockComponent</title>
<polygon fill="#ffffb3" stroke="black" points="509.66,-84.8 356.34,-84.8 356.34,-48.8 509.66,-48.8 509.66,-84.8"/>
<text text-anchor="middle" x="433" y="-62.6" font-family="Times,serif" font-size="14.00">SchoolBlockComponent</text>
</g>
<!-- SchoolBlockComponent&#45;&gt;SchoolsModule -->
<g id="edge2" class="edge">
<title>SchoolBlockComponent&#45;&gt;SchoolsModule</title>
<path fill="none" stroke="black" d="M492.44,-84.91C492.44,-84.91 492.44,-103.79 492.44,-103.79"/>
<polygon fill="black" stroke="black" points="488.95,-103.79 492.44,-113.79 495.95,-103.79 488.95,-103.79"/>
</g>
<!-- SchoolsListComponent -->
<g id="node3" class="node">
<title>SchoolsListComponent</title>
<polygon fill="#ffffb3" stroke="black" points="337.94,-84.8 190.06,-84.8 190.06,-48.8 337.94,-48.8 337.94,-84.8"/>
<text text-anchor="middle" x="264" y="-62.6" font-family="Times,serif" font-size="14.00">SchoolsListComponent</text>
</g>
<!-- SchoolsListComponent&#45;&gt;SchoolsModule -->
<g id="edge3" class="edge">
<title>SchoolsListComponent&#45;&gt;SchoolsModule</title>
<path fill="none" stroke="black" d="M264,-84.82C264,-102.17 264,-125.8 264,-125.8 264,-125.8 465.04,-125.8 465.04,-125.8"/>
<polygon fill="black" stroke="black" points="465.04,-129.3 475.04,-125.8 465.04,-122.3 465.04,-129.3"/>
</g>
<!-- SchoolBlockComponent  -->
<g id="node7" class="node">
<title>SchoolBlockComponent </title>
<polygon fill="#fb8072" stroke="black" points="605.66,-214.8 448.34,-214.8 448.34,-178.8 605.66,-178.8 605.66,-214.8"/>
<text text-anchor="middle" x="527" y="-192.6" font-family="Times,serif" font-size="14.00">SchoolBlockComponent </text>
</g>
<!-- SchoolsModule&#45;&gt;SchoolBlockComponent  -->
<g id="edge6" class="edge">
<title>SchoolsModule&#45;&gt;SchoolBlockComponent </title>
<path fill="none" stroke="black" stroke-dasharray="5,2" d="M527,-149.91C527,-149.91 527,-168.79 527,-168.79"/>
<polygon fill="black" stroke="black" points="523.5,-168.79 527,-178.79 530.5,-168.79 523.5,-168.79"/>
</g>
<!-- EntityListModule -->
<g id="node5" class="node">
<title>EntityListModule</title>
<polygon fill="#8dd3c7" stroke="black" points="1022.55,-84.8 1019.55,-88.8 998.55,-88.8 995.55,-84.8 907.45,-84.8 907.45,-48.8 1022.55,-48.8 1022.55,-84.8"/>
<text text-anchor="middle" x="965" y="-62.6" font-family="Times,serif" font-size="14.00">EntityListModule</text>
</g>
<!-- EntityListModule&#45;&gt;SchoolsModule -->
<g id="edge4" class="edge">
<title>EntityListModule&#45;&gt;SchoolsModule</title>
<path fill="none" stroke="black" d="M965,-85.08C965,-106.12 965,-137.8 965,-137.8 965,-137.8 588.96,-137.8 588.96,-137.8"/>
<polygon fill="black" stroke="black" points="588.96,-134.3 578.96,-137.8 588.96,-141.3 588.96,-134.3"/>
</g>
<!-- EntitySubrecordModule -->
<g id="node6" class="node">
<title>EntitySubrecordModule</title>
<polygon fill="#8dd3c7" stroke="black" points="889.81,-84.8 886.81,-88.8 865.81,-88.8 862.81,-84.8 738.19,-84.8 738.19,-48.8 889.81,-48.8 889.81,-84.8"/>
<text text-anchor="middle" x="814" y="-62.6" font-family="Times,serif" font-size="14.00">EntitySubrecordModule</text>
</g>
<!-- EntitySubrecordModule&#45;&gt;SchoolsModule -->
<g id="edge5" class="edge">
<title>EntitySubrecordModule&#45;&gt;SchoolsModule</title>
<path fill="none" stroke="black" d="M814,-84.82C814,-102.17 814,-125.8 814,-125.8 814,-125.8 588.97,-125.8 588.97,-125.8"/>
<polygon fill="black" stroke="black" points="588.97,-122.3 578.97,-125.8 588.97,-129.3 588.97,-122.3"/>
</g>
<!-- SchoolsService -->
<g id="node8" class="node">
<title>SchoolsService</title>
<ellipse fill="#fdb462" stroke="black" cx="95" cy="-66.8" rx="70.64" ry="18"/>
<text text-anchor="middle" x="95" y="-62.6" font-family="Times,serif" font-size="14.00">SchoolsService</text>
</g>
<!-- SchoolsService&#45;&gt;SchoolsModule -->
<g id="edge7" class="edge">
<title>SchoolsService&#45;&gt;SchoolsModule</title>
<path fill="none" stroke="black" d="M95,-85.08C95,-106.12 95,-137.8 95,-137.8 95,-137.8 464.89,-137.8 464.89,-137.8"/>
<polygon fill="black" stroke="black" points="464.89,-141.3 474.89,-137.8 464.89,-134.3 464.89,-141.3"/>
</g>
</g>
</svg>
