<?xml version="1.0" encoding="UTF-8" standalone="no"?>
<!DOCTYPE svg PUBLIC "-//W3C//DTD SVG 1.1//EN"
 "http://www.w3.org/Graphics/SVG/1.1/DTD/svg11.dtd">
<!-- Generated by graphviz version 2.47.3 (20210619.1520)
 -->
<!-- Title: dependencies Pages: 1 -->
<svg width="650pt" height="247pt"
 viewBox="0.00 0.00 650.00 246.80" xmlns="http://www.w3.org/2000/svg" xmlns:xlink="http://www.w3.org/1999/xlink">
<g id="graph0" class="graph" transform="scale(1 1) rotate(0) translate(4 242.8)">
<title>dependencies</title>
<polygon fill="white" stroke="transparent" points="-4,4 -4,-242.8 646,-242.8 646,4 -4,4"/>
<text text-anchor="middle" x="321" y="-8.2" font-family="sans-serif" font-size="14.00">dependencies</text>
<g id="clust1" class="cluster">
<title>cluster_FormDialogModule</title>
<polygon fill="none" stroke="black" stroke-dasharray="1,5" points="8,-32.8 8,-230.8 634,-230.8 634,-32.8 8,-32.8"/>
</g>
<g id="clust4" class="cluster">
<title>cluster_FormDialogModule_imports</title>
<polygon fill="none" stroke="black" points="436,-40.8 436,-92.8 626,-92.8 626,-40.8 436,-40.8"/>
</g>
<g id="clust5" class="cluster">
<title>cluster_FormDialogModule_exports</title>
<polygon fill="none" stroke="black" points="212,-170.8 212,-222.8 430,-222.8 430,-170.8 212,-170.8"/>
</g>
<g id="clust2" class="cluster">
<title>cluster_FormDialogModule_declarations</title>
<polygon fill="none" stroke="black" points="214,-40.8 214,-92.8 428,-92.8 428,-40.8 214,-40.8"/>
</g>
<g id="clust7" class="cluster">
<title>cluster_FormDialogModule_providers</title>
<polygon fill="none" stroke="black" points="16,-40.8 16,-92.8 206,-92.8 206,-40.8 16,-40.8"/>
</g>
<!-- FormDialogWrapperComponent -->
<g id="node1" class="node">
<title>FormDialogWrapperComponent</title>
<polygon fill="#ffffb3" stroke="black" points="420.23,-84.8 221.77,-84.8 221.77,-48.8 420.23,-48.8 420.23,-84.8"/>
<text text-anchor="middle" x="321" y="-62.6" font-family="Times,serif" font-size="14.00">FormDialogWrapperComponent</text>
</g>
<!-- FormDialogModule -->
<g id="node2" class="node">
<title>FormDialogModule</title>
<polygon fill="#8dd3c7" stroke="black" points="384.99,-149.8 381.99,-153.8 360.99,-153.8 357.99,-149.8 257.01,-149.8 257.01,-113.8 384.99,-113.8 384.99,-149.8"/>
<text text-anchor="middle" x="321" y="-127.6" font-family="Times,serif" font-size="14.00">FormDialogModule</text>
</g>
<!-- FormDialogWrapperComponent&#45;&gt;FormDialogModule -->
<g id="edge1" class="edge">
<title>FormDialogWrapperComponent&#45;&gt;FormDialogModule</title>
<path fill="none" stroke="black" d="M321,-84.91C321,-84.91 321,-103.79 321,-103.79"/>
<polygon fill="black" stroke="black" points="317.5,-103.79 321,-113.79 324.5,-103.79 317.5,-103.79"/>
</g>
<!-- FormDialogWrapperComponent  -->
<g id="node4" class="node">
<title>FormDialogWrapperComponent </title>
<polygon fill="#fb8072" stroke="black" points="422.23,-214.8 219.77,-214.8 219.77,-178.8 422.23,-178.8 422.23,-214.8"/>
<text text-anchor="middle" x="321" y="-192.6" font-family="Times,serif" font-size="14.00">FormDialogWrapperComponent </text>
</g>
<!-- FormDialogModule&#45;&gt;FormDialogWrapperComponent  -->
<g id="edge3" class="edge">
<title>FormDialogModule&#45;&gt;FormDialogWrapperComponent </title>
<path fill="none" stroke="black" stroke-dasharray="5,2" d="M321,-149.91C321,-149.91 321,-168.79 321,-168.79"/>
<polygon fill="black" stroke="black" points="317.5,-168.79 321,-178.79 324.5,-168.79 317.5,-168.79"/>
</g>
<!-- ConfirmationDialogModule -->
<g id="node3" class="node">
<title>ConfirmationDialogModule</title>
<polygon fill="#8dd3c7" stroke="black" points="617.59,-84.8 614.59,-88.8 593.59,-88.8 590.59,-84.8 444.41,-84.8 444.41,-48.8 617.59,-48.8 617.59,-84.8"/>
<text text-anchor="middle" x="531" y="-62.6" font-family="Times,serif" font-size="14.00">ConfirmationDialogModule</text>
</g>
<!-- ConfirmationDialogModule&#45;&gt;FormDialogModule -->
<g id="edge2" class="edge">
<title>ConfirmationDialogModule&#45;&gt;FormDialogModule</title>
<path fill="none" stroke="black" d="M531,-84.91C531,-104.14 531,-131.8 531,-131.8 531,-131.8 395.15,-131.8 395.15,-131.8"/>
<polygon fill="black" stroke="black" points="395.15,-128.3 385.15,-131.8 395.15,-135.3 395.15,-128.3"/>
</g>
<!-- FormDialogService -->
<g id="node5" class="node">
<title>FormDialogService</title>
<ellipse fill="#fdb462" stroke="black" cx="111" cy="-66.8" rx="87.4" ry="18"/>
<text text-anchor="middle" x="111" y="-62.6" font-family="Times,serif" font-size="14.00">FormDialogService</text>
</g>
<!-- FormDialogService&#45;&gt;FormDialogModule -->
<g id="edge4" class="edge">
<title>FormDialogService&#45;&gt;FormDialogModule</title>
<path fill="none" stroke="black" d="M111,-84.91C111,-104.14 111,-131.8 111,-131.8 111,-131.8 246.85,-131.8 246.85,-131.8"/>
<polygon fill="black" stroke="black" points="246.85,-135.3 256.85,-131.8 246.85,-128.3 246.85,-135.3"/>
</g>
</g>
</svg>
