<?xml version="1.0" encoding="UTF-8" standalone="no"?>
<!DOCTYPE svg PUBLIC "-//W3C//DTD SVG 1.1//EN"
 "http://www.w3.org/Graphics/SVG/1.1/DTD/svg11.dtd">
<!-- Generated by graphviz version 2.47.3 (20210619.1520)
 -->
<!-- Title: dependencies Pages: 1 -->
<svg width="1171pt" height="247pt"
 viewBox="0.00 0.00 1171.00 246.80" xmlns="http://www.w3.org/2000/svg" xmlns:xlink="http://www.w3.org/1999/xlink">
<g id="graph0" class="graph" transform="scale(1 1) rotate(0) translate(4 242.8)">
<title>dependencies</title>
<polygon fill="white" stroke="transparent" points="-4,4 -4,-242.8 1167,-242.8 1167,4 -4,4"/>
<text text-anchor="middle" x="581.5" y="-8.2" font-family="sans-serif" font-size="14.00">dependencies</text>
<g id="clust1" class="cluster">
<title>cluster_EntityListModule</title>
<polygon fill="none" stroke="black" stroke-dasharray="1,5" points="8,-32.8 8,-230.8 1155,-230.8 1155,-32.8 8,-32.8"/>
</g>
<g id="clust6" class="cluster">
<title>cluster_EntityListModule_exports</title>
<polygon fill="none" stroke="black" points="492,-170.8 492,-222.8 648,-222.8 648,-170.8 492,-170.8"/>
</g>
<g id="clust2" class="cluster">
<title>cluster_EntityListModule_declarations</title>
<polygon fill="none" stroke="black" points="842,-40.8 842,-92.8 1147,-92.8 1147,-40.8 842,-40.8"/>
</g>
<g id="clust5" class="cluster">
<title>cluster_EntityListModule_imports</title>
<polygon fill="none" stroke="black" points="16,-40.8 16,-92.8 834,-92.8 834,-40.8 16,-40.8"/>
</g>
<!-- EntityListComponent -->
<g id="node1" class="node">
<title>EntityListComponent</title>
<polygon fill="#ffffb3" stroke="black" points="1138.84,-84.8 1001.16,-84.8 1001.16,-48.8 1138.84,-48.8 1138.84,-84.8"/>
<text text-anchor="middle" x="1070" y="-62.6" font-family="Times,serif" font-size="14.00">EntityListComponent</text>
</g>
<!-- EntityListModule -->
<g id="node3" class="node">
<title>EntityListModule</title>
<polygon fill="#8dd3c7" stroke="black" points="627.55,-149.8 624.55,-153.8 603.55,-153.8 600.55,-149.8 512.45,-149.8 512.45,-113.8 627.55,-113.8 627.55,-149.8"/>
<text text-anchor="middle" x="570" y="-127.6" font-family="Times,serif" font-size="14.00">EntityListModule</text>
</g>
<!-- EntityListComponent&#45;&gt;EntityListModule -->
<g id="edge1" class="edge">
<title>EntityListComponent&#45;&gt;EntityListModule</title>
<path fill="none" stroke="black" d="M1070,-85.09C1070,-107.01 1070,-140.8 1070,-140.8 1070,-140.8 637.84,-140.8 637.84,-140.8"/>
<polygon fill="black" stroke="black" points="637.84,-137.3 627.84,-140.8 637.84,-144.3 637.84,-137.3"/>
</g>
<!-- ListFilterComponent -->
<g id="node2" class="node">
<title>ListFilterComponent</title>
<polygon fill="#ffffb3" stroke="black" points="983.94,-84.8 850.06,-84.8 850.06,-48.8 983.94,-48.8 983.94,-84.8"/>
<text text-anchor="middle" x="917" y="-62.6" font-family="Times,serif" font-size="14.00">ListFilterComponent</text>
</g>
<!-- ListFilterComponent&#45;&gt;EntityListModule -->
<g id="edge2" class="edge">
<title>ListFilterComponent&#45;&gt;EntityListModule</title>
<path fill="none" stroke="black" d="M917,-84.91C917,-104.14 917,-131.8 917,-131.8 917,-131.8 637.69,-131.8 637.69,-131.8"/>
<polygon fill="black" stroke="black" points="637.69,-128.3 627.69,-131.8 637.69,-135.3 637.69,-128.3"/>
</g>
<!-- EntityListComponent  -->
<g id="node10" class="node">
<title>EntityListComponent </title>
<polygon fill="#fb8072" stroke="black" points="640.34,-214.8 499.66,-214.8 499.66,-178.8 640.34,-178.8 640.34,-214.8"/>
<text text-anchor="middle" x="570" y="-192.6" font-family="Times,serif" font-size="14.00">EntityListComponent </text>
</g>
<!-- EntityListModule&#45;&gt;EntityListComponent  -->
<g id="edge9" class="edge">
<title>EntityListModule&#45;&gt;EntityListComponent </title>
<path fill="none" stroke="black" stroke-dasharray="5,2" d="M570,-149.91C570,-149.91 570,-168.79 570,-168.79"/>
<polygon fill="black" stroke="black" points="566.5,-168.79 570,-178.79 573.5,-168.79 566.5,-168.79"/>
</g>
<!-- AdminModule -->
<g id="node4" class="node">
<title>AdminModule</title>
<polygon fill="#8dd3c7" stroke="black" points="826.44,-84.8 823.44,-88.8 802.44,-88.8 799.44,-84.8 727.56,-84.8 727.56,-48.8 826.44,-48.8 826.44,-84.8"/>
<text text-anchor="middle" x="777" y="-62.6" font-family="Times,serif" font-size="14.00">AdminModule</text>
</g>
<!-- AdminModule&#45;&gt;EntityListModule -->
<g id="edge3" class="edge">
<title>AdminModule&#45;&gt;EntityListModule</title>
<path fill="none" stroke="black" d="M777,-84.83C777,-101.2 777,-122.8 777,-122.8 777,-122.8 637.66,-122.8 637.66,-122.8"/>
<polygon fill="black" stroke="black" points="637.66,-119.3 627.66,-122.8 637.66,-126.3 637.66,-119.3"/>
</g>
<!-- EntityFormModule -->
<g id="node5" class="node">
<title>EntityFormModule</title>
<polygon fill="#8dd3c7" stroke="black" points="710.11,-84.8 707.11,-88.8 686.11,-88.8 683.11,-84.8 585.89,-84.8 585.89,-48.8 710.11,-48.8 710.11,-84.8"/>
<text text-anchor="middle" x="648" y="-62.6" font-family="Times,serif" font-size="14.00">EntityFormModule</text>
</g>
<!-- EntityFormModule&#45;&gt;EntityListModule -->
<g id="edge4" class="edge">
<title>EntityFormModule&#45;&gt;EntityListModule</title>
<path fill="none" stroke="black" d="M606.86,-84.91C606.86,-84.91 606.86,-103.79 606.86,-103.79"/>
<polygon fill="black" stroke="black" points="603.36,-103.79 606.86,-113.79 610.36,-103.79 603.36,-103.79"/>
</g>
<!-- EntitySubrecordModule -->
<g id="node6" class="node">
<title>EntitySubrecordModule</title>
<polygon fill="#8dd3c7" stroke="black" points="567.81,-84.8 564.81,-88.8 543.81,-88.8 540.81,-84.8 416.19,-84.8 416.19,-48.8 567.81,-48.8 567.81,-84.8"/>
<text text-anchor="middle" x="492" y="-62.6" font-family="Times,serif" font-size="14.00">EntitySubrecordModule</text>
</g>
<!-- EntitySubrecordModule&#45;&gt;EntityListModule -->
<g id="edge5" class="edge">
<title>EntitySubrecordModule&#45;&gt;EntityListModule</title>
<path fill="none" stroke="black" d="M539.94,-84.91C539.94,-84.91 539.94,-103.79 539.94,-103.79"/>
<polygon fill="black" stroke="black" points="536.44,-103.79 539.94,-113.79 543.44,-103.79 536.44,-103.79"/>
</g>
<!-- EntityUtilsModule -->
<g id="node7" class="node">
<title>EntityUtilsModule</title>
<polygon fill="#8dd3c7" stroke="black" points="398.5,-84.8 395.5,-88.8 374.5,-88.8 371.5,-84.8 277.5,-84.8 277.5,-48.8 398.5,-48.8 398.5,-84.8"/>
<text text-anchor="middle" x="338" y="-62.6" font-family="Times,serif" font-size="14.00">EntityUtilsModule</text>
</g>
<!-- EntityUtilsModule&#45;&gt;EntityListModule -->
<g id="edge6" class="edge">
<title>EntityUtilsModule&#45;&gt;EntityListModule</title>
<path fill="none" stroke="black" d="M338,-84.83C338,-101.2 338,-122.8 338,-122.8 338,-122.8 502.35,-122.8 502.35,-122.8"/>
<polygon fill="black" stroke="black" points="502.35,-126.3 512.35,-122.8 502.35,-119.3 502.35,-126.3"/>
</g>
<!-- PermissionsModule -->
<g id="node8" class="node">
<title>PermissionsModule</title>
<polygon fill="#8dd3c7" stroke="black" points="259.71,-84.8 256.71,-88.8 235.71,-88.8 232.71,-84.8 132.29,-84.8 132.29,-48.8 259.71,-48.8 259.71,-84.8"/>
<text text-anchor="middle" x="196" y="-62.6" font-family="Times,serif" font-size="14.00">PermissionsModule</text>
</g>
<!-- PermissionsModule&#45;&gt;EntityListModule -->
<g id="edge7" class="edge">
<title>PermissionsModule&#45;&gt;EntityListModule</title>
<path fill="none" stroke="black" d="M196,-84.91C196,-104.14 196,-131.8 196,-131.8 196,-131.8 502.38,-131.8 502.38,-131.8"/>
<polygon fill="black" stroke="black" points="502.38,-135.3 512.38,-131.8 502.38,-128.3 502.38,-135.3"/>
</g>
<!-- ViewModule -->
<g id="node9" class="node">
<title>ViewModule</title>
<polygon fill="#8dd3c7" stroke="black" points="113.87,-84.8 110.87,-88.8 89.87,-88.8 86.87,-84.8 24.13,-84.8 24.13,-48.8 113.87,-48.8 113.87,-84.8"/>
<text text-anchor="middle" x="69" y="-62.6" font-family="Times,serif" font-size="14.00">ViewModule</text>
</g>
<!-- ViewModule&#45;&gt;EntityListModule -->
<g id="edge8" class="edge">
<title>ViewModule&#45;&gt;EntityListModule</title>
<path fill="none" stroke="black" d="M69,-85.09C69,-107.01 69,-140.8 69,-140.8 69,-140.8 502.04,-140.8 502.04,-140.8"/>
<polygon fill="black" stroke="black" points="502.04,-144.3 512.04,-140.8 502.04,-137.3 502.04,-144.3"/>
</g>
</g>
</svg>
