<?xml version="1.0" encoding="UTF-8" standalone="no"?>
<!DOCTYPE svg PUBLIC "-//W3C//DTD SVG 1.1//EN"
 "http://www.w3.org/Graphics/SVG/1.1/DTD/svg11.dtd">
<!-- Generated by graphviz version 2.47.3 (20210619.1520)
 -->
<!-- Title: dependencies Pages: 1 -->
<svg width="4024pt" height="247pt"
 viewBox="0.00 0.00 4024.00 246.80" xmlns="http://www.w3.org/2000/svg" xmlns:xlink="http://www.w3.org/1999/xlink">
<g id="graph0" class="graph" transform="scale(1 1) rotate(0) translate(4 242.8)">
<title>dependencies</title>
<polygon fill="white" stroke="transparent" points="-4,4 -4,-242.8 4020,-242.8 4020,4 -4,4"/>
<text text-anchor="middle" x="2008" y="-8.2" font-family="sans-serif" font-size="14.00">dependencies</text>
<g id="clust1" class="cluster">
<title>cluster_AttendanceModule</title>
<polygon fill="none" stroke="black" stroke-dasharray="1,5" points="8,-32.8 8,-230.8 4008,-230.8 4008,-32.8 8,-32.8"/>
</g>
<g id="clust18" class="cluster">
<title>cluster_AttendanceModule_imports</title>
<polygon fill="none" stroke="black" points="3167,-40.8 3167,-92.8 4000,-92.8 4000,-40.8 3167,-40.8"/>
</g>
<g id="clust2" class="cluster">
<title>cluster_AttendanceModule_declarations</title>
<polygon fill="none" stroke="black" points="16,-40.8 16,-92.8 3159,-92.8 3159,-40.8 16,-40.8"/>
</g>
<g id="clust19" class="cluster">
<title>cluster_AttendanceModule_exports</title>
<polygon fill="none" stroke="black" points="1702,-170.8 1702,-222.8 2776,-222.8 2776,-170.8 1702,-170.8"/>
</g>
<!-- ActivityAttendanceSectionComponent -->
<g id="node1" class="node">
<title>ActivityAttendanceSectionComponent</title>
<polygon fill="#ffffb3" stroke="black" points="3151.46,-84.8 2918.54,-84.8 2918.54,-48.8 3151.46,-48.8 3151.46,-84.8"/>
<text text-anchor="middle" x="3035" y="-62.6" font-family="Times,serif" font-size="14.00">ActivityAttendanceSectionComponent</text>
</g>
<!-- AttendanceModule -->
<g id="node16" class="node">
<title>AttendanceModule</title>
<polygon fill="#8dd3c7" stroke="black" points="2321.8,-149.8 2318.8,-153.8 2297.8,-153.8 2294.8,-149.8 2198.2,-149.8 2198.2,-113.8 2321.8,-113.8 2321.8,-149.8"/>
<text text-anchor="middle" x="2260" y="-127.6" font-family="Times,serif" font-size="14.00">AttendanceModule</text>
</g>
<!-- ActivityAttendanceSectionComponent&#45;&gt;AttendanceModule -->
<g id="edge1" class="edge">
<title>ActivityAttendanceSectionComponent&#45;&gt;AttendanceModule</title>
<path fill="none" stroke="black" d="M3035,-84.82C3035,-102.17 3035,-125.8 3035,-125.8 3035,-125.8 2331.79,-125.8 2331.79,-125.8"/>
<polygon fill="black" stroke="black" points="2331.79,-122.3 2321.79,-125.8 2331.79,-129.3 2331.79,-122.3"/>
</g>
<!-- ActivityCardComponent -->
<g id="node2" class="node">
<title>ActivityCardComponent</title>
<polygon fill="#ffffb3" stroke="black" points="2900.43,-84.8 2745.57,-84.8 2745.57,-48.8 2900.43,-48.8 2900.43,-84.8"/>
<text text-anchor="middle" x="2823" y="-62.6" font-family="Times,serif" font-size="14.00">ActivityCardComponent</text>
</g>
<!-- ActivityCardComponent&#45;&gt;AttendanceModule -->
<g id="edge2" class="edge">
<title>ActivityCardComponent&#45;&gt;AttendanceModule</title>
<path fill="none" stroke="black" d="M2756.88,-84.83C2756.88,-101.2 2756.88,-122.8 2756.88,-122.8 2756.88,-122.8 2331.92,-122.8 2331.92,-122.8"/>
<polygon fill="black" stroke="black" points="2331.92,-119.3 2321.92,-122.8 2331.92,-126.3 2331.92,-119.3"/>
</g>
<!-- ActivityListComponent -->
<g id="node3" class="node">
<title>ActivityListComponent</title>
<polygon fill="#ffffb3" stroke="black" points="2727.49,-84.8 2578.51,-84.8 2578.51,-48.8 2727.49,-48.8 2727.49,-84.8"/>
<text text-anchor="middle" x="2653" y="-62.6" font-family="Times,serif" font-size="14.00">ActivityListComponent</text>
</g>
<!-- ActivityListComponent&#45;&gt;AttendanceModule -->
<g id="edge3" class="edge">
<title>ActivityListComponent&#45;&gt;AttendanceModule</title>
<path fill="none" stroke="black" d="M2585.09,-85.04C2585.09,-100.37 2585.09,-119.8 2585.09,-119.8 2585.09,-119.8 2331.91,-119.8 2331.91,-119.8"/>
<polygon fill="black" stroke="black" points="2331.91,-116.3 2321.91,-119.8 2331.91,-123.3 2331.91,-116.3"/>
</g>
<!-- AddDayAttendanceComponent -->
<g id="node4" class="node">
<title>AddDayAttendanceComponent</title>
<polygon fill="#ffffb3" stroke="black" points="2560.01,-84.8 2367.99,-84.8 2367.99,-48.8 2560.01,-48.8 2560.01,-84.8"/>
<text text-anchor="middle" x="2464" y="-62.6" font-family="Times,serif" font-size="14.00">AddDayAttendanceComponent</text>
</g>
<!-- AddDayAttendanceComponent&#45;&gt;AttendanceModule -->
<g id="edge4" class="edge">
<title>AddDayAttendanceComponent&#45;&gt;AttendanceModule</title>
<path fill="none" stroke="black" d="M2377.42,-84.85C2377.42,-99.17 2377.42,-116.8 2377.42,-116.8 2377.42,-116.8 2331.8,-116.8 2331.8,-116.8"/>
<polygon fill="black" stroke="black" points="2331.8,-113.3 2321.8,-116.8 2331.8,-120.3 2331.8,-113.3"/>
</g>
<!-- AttendanceBlockComponent -->
<g id="node5" class="node">
<title>AttendanceBlockComponent</title>
<polygon fill="#ffffb3" stroke="black" points="2349.02,-84.8 2170.98,-84.8 2170.98,-48.8 2349.02,-48.8 2349.02,-84.8"/>
<text text-anchor="middle" x="2260" y="-62.6" font-family="Times,serif" font-size="14.00">AttendanceBlockComponent</text>
</g>
<!-- AttendanceBlockComponent&#45;&gt;AttendanceModule -->
<g id="edge5" class="edge">
<title>AttendanceBlockComponent&#45;&gt;AttendanceModule</title>
<path fill="none" stroke="black" d="M2260,-84.91C2260,-84.91 2260,-103.79 2260,-103.79"/>
<polygon fill="black" stroke="black" points="2256.5,-103.79 2260,-113.79 2263.5,-103.79 2256.5,-103.79"/>
</g>
<!-- AttendanceCalendarComponent -->
<g id="node6" class="node">
<title>AttendanceCalendarComponent</title>
<polygon fill="#ffffb3" stroke="black" points="2152.61,-84.8 1957.39,-84.8 1957.39,-48.8 2152.61,-48.8 2152.61,-84.8"/>
<text text-anchor="middle" x="2055" y="-62.6" font-family="Times,serif" font-size="14.00">AttendanceCalendarComponent</text>
</g>
<!-- AttendanceCalendarComponent&#45;&gt;AttendanceModule -->
<g id="edge6" class="edge">
<title>AttendanceCalendarComponent&#45;&gt;AttendanceModule</title>
<path fill="none" stroke="black" d="M2142.71,-84.85C2142.71,-99.17 2142.71,-116.8 2142.71,-116.8 2142.71,-116.8 2188.27,-116.8 2188.27,-116.8"/>
<polygon fill="black" stroke="black" points="2188.27,-120.3 2198.27,-116.8 2188.27,-113.3 2188.27,-120.3"/>
</g>
<!-- AttendanceDayBlockComponent -->
<g id="node7" class="node">
<title>AttendanceDayBlockComponent</title>
<polygon fill="#ffffb3" stroke="black" points="1938.84,-84.8 1737.16,-84.8 1737.16,-48.8 1938.84,-48.8 1938.84,-84.8"/>
<text text-anchor="middle" x="1838" y="-62.6" font-family="Times,serif" font-size="14.00">AttendanceDayBlockComponent</text>
</g>
<!-- AttendanceDayBlockComponent&#45;&gt;AttendanceModule -->
<g id="edge7" class="edge">
<title>AttendanceDayBlockComponent&#45;&gt;AttendanceModule</title>
<path fill="none" stroke="black" d="M1915.49,-85.04C1915.49,-100.37 1915.49,-119.8 1915.49,-119.8 1915.49,-119.8 2188.01,-119.8 2188.01,-119.8"/>
<polygon fill="black" stroke="black" points="2188.01,-123.3 2198.01,-119.8 2188.01,-116.3 2188.01,-123.3"/>
</g>
<!-- AttendanceDetailsComponent -->
<g id="node8" class="node">
<title>AttendanceDetailsComponent</title>
<polygon fill="#ffffb3" stroke="black" points="1719.23,-84.8 1534.77,-84.8 1534.77,-48.8 1719.23,-48.8 1719.23,-84.8"/>
<text text-anchor="middle" x="1627" y="-62.6" font-family="Times,serif" font-size="14.00">AttendanceDetailsComponent</text>
</g>
<!-- AttendanceDetailsComponent&#45;&gt;AttendanceModule -->
<g id="edge8" class="edge">
<title>AttendanceDetailsComponent&#45;&gt;AttendanceModule</title>
<path fill="none" stroke="black" d="M1714.64,-84.83C1714.64,-101.2 1714.64,-122.8 1714.64,-122.8 1714.64,-122.8 2188.24,-122.8 2188.24,-122.8"/>
<polygon fill="black" stroke="black" points="2188.24,-126.3 2198.24,-122.8 2188.24,-119.3 2188.24,-126.3"/>
</g>
<!-- AttendanceManagerComponent -->
<g id="node9" class="node">
<title>AttendanceManagerComponent</title>
<polygon fill="#ffffb3" stroke="black" points="1516.33,-84.8 1321.67,-84.8 1321.67,-48.8 1516.33,-48.8 1516.33,-84.8"/>
<text text-anchor="middle" x="1419" y="-62.6" font-family="Times,serif" font-size="14.00">AttendanceManagerComponent</text>
</g>
<!-- AttendanceManagerComponent&#45;&gt;AttendanceModule -->
<g id="edge9" class="edge">
<title>AttendanceManagerComponent&#45;&gt;AttendanceModule</title>
<path fill="none" stroke="black" d="M1419,-84.82C1419,-102.17 1419,-125.8 1419,-125.8 1419,-125.8 2188.16,-125.8 2188.16,-125.8"/>
<polygon fill="black" stroke="black" points="2188.16,-129.3 2198.16,-125.8 2188.16,-122.3 2188.16,-129.3"/>
</g>
<!-- AttendanceStatusSelectComponent -->
<g id="node10" class="node">
<title>AttendanceStatusSelectComponent</title>
<polygon fill="#ffffb3" stroke="black" points="1303.51,-84.8 1090.49,-84.8 1090.49,-48.8 1303.51,-48.8 1303.51,-84.8"/>
<text text-anchor="middle" x="1197" y="-62.6" font-family="Times,serif" font-size="14.00">AttendanceStatusSelectComponent</text>
</g>
<!-- AttendanceStatusSelectComponent&#45;&gt;AttendanceModule -->
<g id="edge10" class="edge">
<title>AttendanceStatusSelectComponent&#45;&gt;AttendanceModule</title>
<path fill="none" stroke="black" d="M1197,-85.1C1197,-103.07 1197,-127.8 1197,-127.8 1197,-127.8 2188.25,-127.8 2188.25,-127.8"/>
<polygon fill="black" stroke="black" points="2188.25,-131.3 2198.25,-127.8 2188.25,-124.3 2188.25,-131.3"/>
</g>
<!-- AttendanceWeekDashboardComponent -->
<g id="node11" class="node">
<title>AttendanceWeekDashboardComponent</title>
<polygon fill="#ffffb3" stroke="black" points="1072.36,-84.8 833.64,-84.8 833.64,-48.8 1072.36,-48.8 1072.36,-84.8"/>
<text text-anchor="middle" x="953" y="-62.6" font-family="Times,serif" font-size="14.00">AttendanceWeekDashboardComponent</text>
</g>
<!-- AttendanceWeekDashboardComponent&#45;&gt;AttendanceModule -->
<g id="edge11" class="edge">
<title>AttendanceWeekDashboardComponent&#45;&gt;AttendanceModule</title>
<path fill="none" stroke="black" d="M953,-84.97C953,-103.89 953,-130.8 953,-130.8 953,-130.8 2188.28,-130.8 2188.28,-130.8"/>
<polygon fill="black" stroke="black" points="2188.28,-134.3 2198.28,-130.8 2188.28,-127.3 2188.28,-134.3"/>
</g>
<!-- GroupedChildAttendanceComponent -->
<g id="node12" class="node">
<title>GroupedChildAttendanceComponent</title>
<polygon fill="#ffffb3" stroke="black" points="815.68,-84.8 590.32,-84.8 590.32,-48.8 815.68,-48.8 815.68,-84.8"/>
<text text-anchor="middle" x="703" y="-62.6" font-family="Times,serif" font-size="14.00">GroupedChildAttendanceComponent</text>
</g>
<!-- GroupedChildAttendanceComponent&#45;&gt;AttendanceModule -->
<g id="edge12" class="edge">
<title>GroupedChildAttendanceComponent&#45;&gt;AttendanceModule</title>
<path fill="none" stroke="black" d="M703,-85.11C703,-104.95 703,-133.8 703,-133.8 703,-133.8 2188,-133.8 2188,-133.8"/>
<polygon fill="black" stroke="black" points="2188,-137.3 2198,-133.8 2188,-130.3 2188,-137.3"/>
</g>
<!-- RecentAttendanceBlocksComponent -->
<g id="node13" class="node">
<title>RecentAttendanceBlocksComponent</title>
<polygon fill="#ffffb3" stroke="black" points="572.34,-84.8 349.66,-84.8 349.66,-48.8 572.34,-48.8 572.34,-84.8"/>
<text text-anchor="middle" x="461" y="-62.6" font-family="Times,serif" font-size="14.00">RecentAttendanceBlocksComponent</text>
</g>
<!-- RecentAttendanceBlocksComponent&#45;&gt;AttendanceModule -->
<g id="edge13" class="edge">
<title>RecentAttendanceBlocksComponent&#45;&gt;AttendanceModule</title>
<path fill="none" stroke="black" d="M461,-84.83C461,-105.57 461,-136.8 461,-136.8 461,-136.8 2188.33,-136.8 2188.33,-136.8"/>
<polygon fill="black" stroke="black" points="2188.33,-140.3 2198.33,-136.8 2188.33,-133.3 2188.33,-140.3"/>
</g>
<!-- RollCallComponent -->
<g id="node14" class="node">
<title>RollCallComponent</title>
<polygon fill="#ffffb3" stroke="black" points="331.28,-84.8 202.72,-84.8 202.72,-48.8 331.28,-48.8 331.28,-84.8"/>
<text text-anchor="middle" x="267" y="-62.6" font-family="Times,serif" font-size="14.00">RollCallComponent</text>
</g>
<!-- RollCallComponent&#45;&gt;AttendanceModule -->
<g id="edge14" class="edge">
<title>RollCallComponent&#45;&gt;AttendanceModule</title>
<path fill="none" stroke="black" d="M267,-84.97C267,-106.3 267,-138.8 267,-138.8 267,-138.8 2188.17,-138.8 2188.17,-138.8"/>
<polygon fill="black" stroke="black" points="2188.17,-142.3 2198.17,-138.8 2188.17,-135.3 2188.17,-142.3"/>
</g>
<!-- RollCallSetupComponent -->
<g id="node15" class="node">
<title>RollCallSetupComponent</title>
<polygon fill="#ffffb3" stroke="black" points="184.17,-84.8 23.83,-84.8 23.83,-48.8 184.17,-48.8 184.17,-84.8"/>
<text text-anchor="middle" x="104" y="-62.6" font-family="Times,serif" font-size="14.00">RollCallSetupComponent</text>
</g>
<!-- RollCallSetupComponent&#45;&gt;AttendanceModule -->
<g id="edge15" class="edge">
<title>RollCallSetupComponent&#45;&gt;AttendanceModule</title>
<path fill="none" stroke="black" d="M104,-84.96C104,-107.15 104,-141.8 104,-141.8 104,-141.8 2188.09,-141.8 2188.09,-141.8"/>
<polygon fill="black" stroke="black" points="2188.09,-145.3 2198.09,-141.8 2188.09,-138.3 2188.09,-145.3"/>
</g>
<!-- ActivityCardComponent  -->
<g id="node23" class="node">
<title>ActivityCardComponent </title>
<polygon fill="#fb8072" stroke="black" points="2767.93,-214.8 2610.07,-214.8 2610.07,-178.8 2767.93,-178.8 2767.93,-214.8"/>
<text text-anchor="middle" x="2689" y="-192.6" font-family="Times,serif" font-size="14.00">ActivityCardComponent </text>
</g>
<!-- AttendanceModule&#45;&gt;ActivityCardComponent  -->
<g id="edge22" class="edge">
<title>AttendanceModule&#45;&gt;ActivityCardComponent </title>
<path fill="none" stroke="black" stroke-dasharray="5,2" d="M2322.08,-144.8C2436.43,-144.8 2668.77,-144.8 2668.77,-144.8 2668.77,-144.8 2668.77,-168.61 2668.77,-168.61"/>
<polygon fill="black" stroke="black" points="2665.27,-168.61 2668.77,-178.61 2672.27,-168.61 2665.27,-168.61"/>
</g>
<!-- AttendanceDayBlockComponent  -->
<g id="node24" class="node">
<title>AttendanceDayBlockComponent </title>
<polygon fill="#fb8072" stroke="black" points="2591.84,-214.8 2386.16,-214.8 2386.16,-178.8 2591.84,-178.8 2591.84,-214.8"/>
<text text-anchor="middle" x="2489" y="-192.6" font-family="Times,serif" font-size="14.00">AttendanceDayBlockComponent </text>
</g>
<!-- AttendanceModule&#45;&gt;AttendanceDayBlockComponent  -->
<g id="edge23" class="edge">
<title>AttendanceModule&#45;&gt;AttendanceDayBlockComponent </title>
<path fill="none" stroke="black" stroke-dasharray="5,2" d="M2321.69,-147.8C2384.69,-147.8 2473.29,-147.8 2473.29,-147.8 2473.29,-147.8 2473.29,-168.55 2473.29,-168.55"/>
<polygon fill="black" stroke="black" points="2469.79,-168.55 2473.29,-178.55 2476.79,-168.55 2469.79,-168.55"/>
</g>
<!-- AttendanceStatusSelectComponent  -->
<g id="node25" class="node">
<title>AttendanceStatusSelectComponent </title>
<polygon fill="#fb8072" stroke="black" points="2368.51,-214.8 2151.49,-214.8 2151.49,-178.8 2368.51,-178.8 2368.51,-214.8"/>
<text text-anchor="middle" x="2260" y="-192.6" font-family="Times,serif" font-size="14.00">AttendanceStatusSelectComponent </text>
</g>
<!-- AttendanceModule&#45;&gt;AttendanceStatusSelectComponent  -->
<g id="edge24" class="edge">
<title>AttendanceModule&#45;&gt;AttendanceStatusSelectComponent </title>
<path fill="none" stroke="black" stroke-dasharray="5,2" d="M2260,-149.91C2260,-149.91 2260,-168.79 2260,-168.79"/>
<polygon fill="black" stroke="black" points="2256.5,-168.79 2260,-178.79 2263.5,-168.79 2256.5,-168.79"/>
</g>
<!-- AttendanceWeekDashboardComponent  -->
<g id="node26" class="node">
<title>AttendanceWeekDashboardComponent </title>
<polygon fill="#fb8072" stroke="black" points="2133.86,-214.8 1892.14,-214.8 1892.14,-178.8 2133.86,-178.8 2133.86,-214.8"/>
<text text-anchor="middle" x="2013" y="-192.6" font-family="Times,serif" font-size="14.00">AttendanceWeekDashboardComponent </text>
</g>
<!-- AttendanceModule&#45;&gt;AttendanceWeekDashboardComponent  -->
<g id="edge25" class="edge">
<title>AttendanceModule&#45;&gt;AttendanceWeekDashboardComponent </title>
<path fill="none" stroke="black" stroke-dasharray="5,2" d="M2198.26,-147.8C2134.91,-147.8 2045.56,-147.8 2045.56,-147.8 2045.56,-147.8 2045.56,-168.55 2045.56,-168.55"/>
<polygon fill="black" stroke="black" points="2042.06,-168.55 2045.56,-178.55 2049.06,-168.55 2042.06,-168.55"/>
</g>
<!-- RollCallSetupComponent  -->
<g id="node27" class="node">
<title>RollCallSetupComponent </title>
<polygon fill="#fb8072" stroke="black" points="1874.17,-214.8 1709.83,-214.8 1709.83,-178.8 1874.17,-178.8 1874.17,-214.8"/>
<text text-anchor="middle" x="1792" y="-192.6" font-family="Times,serif" font-size="14.00">RollCallSetupComponent </text>
</g>
<!-- AttendanceModule&#45;&gt;RollCallSetupComponent  -->
<g id="edge26" class="edge">
<title>AttendanceModule&#45;&gt;RollCallSetupComponent </title>
<path fill="none" stroke="black" stroke-dasharray="5,2" d="M2198.24,-144.8C2074,-144.8 1805.58,-144.8 1805.58,-144.8 1805.58,-144.8 1805.58,-168.61 1805.58,-168.61"/>
<polygon fill="black" stroke="black" points="1802.08,-168.61 1805.58,-178.61 1809.08,-168.61 1802.08,-168.61"/>
</g>
<!-- ChildrenModule -->
<g id="node17" class="node">
<title>ChildrenModule</title>
<polygon fill="#8dd3c7" stroke="black" points="3992.04,-84.8 3989.04,-88.8 3968.04,-88.8 3965.04,-84.8 3883.96,-84.8 3883.96,-48.8 3992.04,-48.8 3992.04,-84.8"/>
<text text-anchor="middle" x="3938" y="-62.6" font-family="Times,serif" font-size="14.00">ChildrenModule</text>
</g>
<!-- ChildrenModule&#45;&gt;AttendanceModule -->
<g id="edge16" class="edge">
<title>ChildrenModule&#45;&gt;AttendanceModule</title>
<path fill="none" stroke="black" d="M3938,-84.96C3938,-107.15 3938,-141.8 3938,-141.8 3938,-141.8 2331.71,-141.8 2331.71,-141.8"/>
<polygon fill="black" stroke="black" points="2331.71,-138.3 2321.71,-141.8 2331.71,-145.3 2331.71,-138.3"/>
</g>
<!-- EntityListModule -->
<g id="node18" class="node">
<title>EntityListModule</title>
<polygon fill="#8dd3c7" stroke="black" points="3865.55,-84.8 3862.55,-88.8 3841.55,-88.8 3838.55,-84.8 3750.45,-84.8 3750.45,-48.8 3865.55,-48.8 3865.55,-84.8"/>
<text text-anchor="middle" x="3808" y="-62.6" font-family="Times,serif" font-size="14.00">EntityListModule</text>
</g>
<!-- EntityListModule&#45;&gt;AttendanceModule -->
<g id="edge17" class="edge">
<title>EntityListModule&#45;&gt;AttendanceModule</title>
<path fill="none" stroke="black" d="M3808,-84.97C3808,-106.3 3808,-138.8 3808,-138.8 3808,-138.8 2332.12,-138.8 2332.12,-138.8"/>
<polygon fill="black" stroke="black" points="2332.12,-135.3 2322.12,-138.8 2332.12,-142.3 2332.12,-135.3"/>
</g>
<!-- EntitySubrecordModule -->
<g id="node19" class="node">
<title>EntitySubrecordModule</title>
<polygon fill="#8dd3c7" stroke="black" points="3732.81,-84.8 3729.81,-88.8 3708.81,-88.8 3705.81,-84.8 3581.19,-84.8 3581.19,-48.8 3732.81,-48.8 3732.81,-84.8"/>
<text text-anchor="middle" x="3657" y="-62.6" font-family="Times,serif" font-size="14.00">EntitySubrecordModule</text>
</g>
<!-- EntitySubrecordModule&#45;&gt;AttendanceModule -->
<g id="edge18" class="edge">
<title>EntitySubrecordModule&#45;&gt;AttendanceModule</title>
<path fill="none" stroke="black" d="M3657,-84.83C3657,-105.57 3657,-136.8 3657,-136.8 3657,-136.8 2331.83,-136.8 2331.83,-136.8"/>
<polygon fill="black" stroke="black" points="2331.83,-133.3 2321.83,-136.8 2331.83,-140.3 2331.83,-133.3"/>
</g>
<!-- EntityUtilsModule -->
<g id="node20" class="node">
<title>EntityUtilsModule</title>
<polygon fill="#8dd3c7" stroke="black" points="3563.5,-84.8 3560.5,-88.8 3539.5,-88.8 3536.5,-84.8 3442.5,-84.8 3442.5,-48.8 3563.5,-48.8 3563.5,-84.8"/>
<text text-anchor="middle" x="3503" y="-62.6" font-family="Times,serif" font-size="14.00">EntityUtilsModule</text>
</g>
<!-- EntityUtilsModule&#45;&gt;AttendanceModule -->
<g id="edge19" class="edge">
<title>EntityUtilsModule&#45;&gt;AttendanceModule</title>
<path fill="none" stroke="black" d="M3503,-85.11C3503,-104.95 3503,-133.8 3503,-133.8 3503,-133.8 2332.07,-133.8 2332.07,-133.8"/>
<polygon fill="black" stroke="black" points="2332.07,-130.3 2322.07,-133.8 2332.07,-137.3 2332.07,-130.3"/>
</g>
<!-- FormDialogModule -->
<g id="node21" class="node">
<title>FormDialogModule</title>
<polygon fill="#8dd3c7" stroke="black" points="3424.99,-84.8 3421.99,-88.8 3400.99,-88.8 3397.99,-84.8 3297.01,-84.8 3297.01,-48.8 3424.99,-48.8 3424.99,-84.8"/>
<text text-anchor="middle" x="3361" y="-62.6" font-family="Times,serif" font-size="14.00">FormDialogModule</text>
</g>
<!-- FormDialogModule&#45;&gt;AttendanceModule -->
<g id="edge20" class="edge">
<title>FormDialogModule&#45;&gt;AttendanceModule</title>
<path fill="none" stroke="black" d="M3361,-84.97C3361,-103.89 3361,-130.8 3361,-130.8 3361,-130.8 2331.95,-130.8 2331.95,-130.8"/>
<polygon fill="black" stroke="black" points="2331.95,-127.3 2321.95,-130.8 2331.95,-134.3 2331.95,-127.3"/>
</g>
<!-- SchoolsModule -->
<g id="node22" class="node">
<title>SchoolsModule</title>
<polygon fill="#8dd3c7" stroke="black" points="3278.88,-84.8 3275.88,-88.8 3254.88,-88.8 3251.88,-84.8 3175.12,-84.8 3175.12,-48.8 3278.88,-48.8 3278.88,-84.8"/>
<text text-anchor="middle" x="3227" y="-62.6" font-family="Times,serif" font-size="14.00">SchoolsModule</text>
</g>
<!-- SchoolsModule&#45;&gt;AttendanceModule -->
<g id="edge21" class="edge">
<title>SchoolsModule&#45;&gt;AttendanceModule</title>
<path fill="none" stroke="black" d="M3227,-85.1C3227,-103.07 3227,-127.8 3227,-127.8 3227,-127.8 2331.96,-127.8 2331.96,-127.8"/>
<polygon fill="black" stroke="black" points="2331.96,-124.3 2321.96,-127.8 2331.96,-131.3 2331.96,-124.3"/>
</g>
</g>
</svg>
