<?xml version="1.0" encoding="UTF-8" standalone="no"?>
<!DOCTYPE svg PUBLIC "-//W3C//DTD SVG 1.1//EN"
 "http://www.w3.org/Graphics/SVG/1.1/DTD/svg11.dtd">
<!-- Generated by graphviz version 2.47.3 (20210619.1520)
 -->
<!-- Title: dependencies Pages: 1 -->
<svg width="1122pt" height="247pt"
 viewBox="0.00 0.00 1122.00 246.80" xmlns="http://www.w3.org/2000/svg" xmlns:xlink="http://www.w3.org/1999/xlink">
<g id="graph0" class="graph" transform="scale(1 1) rotate(0) translate(4 242.8)">
<title>dependencies</title>
<polygon fill="white" stroke="transparent" points="-4,4 -4,-242.8 1118,-242.8 1118,4 -4,4"/>
<text text-anchor="middle" x="557" y="-8.2" font-family="sans-serif" font-size="14.00">dependencies</text>
<g id="clust1" class="cluster">
<title>cluster_AdminModule</title>
<polygon fill="none" stroke="black" stroke-dasharray="1,5" points="8,-32.8 8,-230.8 1106,-230.8 1106,-32.8 8,-32.8"/>
</g>
<g id="clust2" class="cluster">
<title>cluster_AdminModule_declarations</title>
<polygon fill="none" stroke="black" points="650,-40.8 650,-92.8 1098,-92.8 1098,-40.8 650,-40.8"/>
</g>
<g id="clust7" class="cluster">
<title>cluster_AdminModule_exports</title>
<polygon fill="none" stroke="black" points="504,-170.8 504,-222.8 670,-222.8 670,-170.8 504,-170.8"/>
</g>
<g id="clust6" class="cluster">
<title>cluster_AdminModule_imports</title>
<polygon fill="none" stroke="black" points="420,-40.8 420,-92.8 642,-92.8 642,-40.8 420,-40.8"/>
</g>
<g id="clust9" class="cluster">
<title>cluster_AdminModule_providers</title>
<polygon fill="none" stroke="black" points="16,-40.8 16,-92.8 412,-92.8 412,-40.8 16,-40.8"/>
</g>
<!-- AdminComponent -->
<g id="node1" class="node">
<title>AdminComponent</title>
<polygon fill="#ffffb3" stroke="black" points="1090.22,-84.8 969.78,-84.8 969.78,-48.8 1090.22,-48.8 1090.22,-84.8"/>
<text text-anchor="middle" x="1030" y="-62.6" font-family="Times,serif" font-size="14.00">AdminComponent</text>
</g>
<!-- AdminModule -->
<g id="node4" class="node">
<title>AdminModule</title>
<polygon fill="#8dd3c7" stroke="black" points="636.44,-149.8 633.44,-153.8 612.44,-153.8 609.44,-149.8 537.56,-149.8 537.56,-113.8 636.44,-113.8 636.44,-149.8"/>
<text text-anchor="middle" x="587" y="-127.6" font-family="Times,serif" font-size="14.00">AdminModule</text>
</g>
<!-- AdminComponent&#45;&gt;AdminModule -->
<g id="edge1" class="edge">
<title>AdminComponent&#45;&gt;AdminModule</title>
<path fill="none" stroke="black" d="M1030,-85.09C1030,-107.01 1030,-140.8 1030,-140.8 1030,-140.8 646.53,-140.8 646.53,-140.8"/>
<polygon fill="black" stroke="black" points="646.53,-137.3 636.53,-140.8 646.53,-144.3 646.53,-137.3"/>
</g>
<!-- ExportDataComponent -->
<g id="node2" class="node">
<title>ExportDataComponent</title>
<polygon fill="#ffffb3" stroke="black" points="951.86,-84.8 806.14,-84.8 806.14,-48.8 951.86,-48.8 951.86,-84.8"/>
<text text-anchor="middle" x="879" y="-62.6" font-family="Times,serif" font-size="14.00">ExportDataComponent</text>
</g>
<!-- ExportDataComponent&#45;&gt;AdminModule -->
<g id="edge2" class="edge">
<title>ExportDataComponent&#45;&gt;AdminModule</title>
<path fill="none" stroke="black" d="M879,-84.91C879,-104.14 879,-131.8 879,-131.8 879,-131.8 646.53,-131.8 646.53,-131.8"/>
<polygon fill="black" stroke="black" points="646.53,-128.3 636.53,-131.8 646.53,-135.3 646.53,-128.3"/>
</g>
<!-- UserListComponent -->
<g id="node3" class="node">
<title>UserListComponent</title>
<polygon fill="#ffffb3" stroke="black" points="787.54,-84.8 658.46,-84.8 658.46,-48.8 787.54,-48.8 787.54,-84.8"/>
<text text-anchor="middle" x="723" y="-62.6" font-family="Times,serif" font-size="14.00">UserListComponent</text>
</g>
<!-- UserListComponent&#45;&gt;AdminModule -->
<g id="edge3" class="edge">
<title>UserListComponent&#45;&gt;AdminModule</title>
<path fill="none" stroke="black" d="M724.72,-84.83C724.72,-101.2 724.72,-122.8 724.72,-122.8 724.72,-122.8 646.33,-122.8 646.33,-122.8"/>
<polygon fill="black" stroke="black" points="646.33,-119.3 636.33,-122.8 646.33,-126.3 646.33,-119.3"/>
</g>
<!-- ExportDataComponent  -->
<g id="node7" class="node">
<title>ExportDataComponent </title>
<polygon fill="#fb8072" stroke="black" points="661.86,-214.8 512.14,-214.8 512.14,-178.8 661.86,-178.8 661.86,-214.8"/>
<text text-anchor="middle" x="587" y="-192.6" font-family="Times,serif" font-size="14.00">ExportDataComponent </text>
</g>
<!-- AdminModule&#45;&gt;ExportDataComponent  -->
<g id="edge6" class="edge">
<title>AdminModule&#45;&gt;ExportDataComponent </title>
<path fill="none" stroke="black" stroke-dasharray="5,2" d="M587,-149.91C587,-149.91 587,-168.79 587,-168.79"/>
<polygon fill="black" stroke="black" points="583.5,-168.79 587,-178.79 590.5,-168.79 583.5,-168.79"/>
</g>
<!-- AlertsModule -->
<g id="node5" class="node">
<title>AlertsModule</title>
<polygon fill="#8dd3c7" stroke="black" points="633.76,-84.8 630.76,-88.8 609.76,-88.8 606.76,-84.8 540.24,-84.8 540.24,-48.8 633.76,-48.8 633.76,-84.8"/>
<text text-anchor="middle" x="587" y="-62.6" font-family="Times,serif" font-size="14.00">AlertsModule</text>
</g>
<!-- AlertsModule&#45;&gt;AdminModule -->
<g id="edge4" class="edge">
<title>AlertsModule&#45;&gt;AdminModule</title>
<path fill="none" stroke="black" d="M587,-84.91C587,-84.91 587,-103.79 587,-103.79"/>
<polygon fill="black" stroke="black" points="583.5,-103.79 587,-113.79 590.5,-103.79 583.5,-103.79"/>
</g>
<!-- EntityModule -->
<g id="node6" class="node">
<title>EntityModule</title>
<polygon fill="#8dd3c7" stroke="black" points="521.77,-84.8 518.77,-88.8 497.77,-88.8 494.77,-84.8 428.23,-84.8 428.23,-48.8 521.77,-48.8 521.77,-84.8"/>
<text text-anchor="middle" x="475" y="-62.6" font-family="Times,serif" font-size="14.00">EntityModule</text>
</g>
<!-- EntityModule&#45;&gt;AdminModule -->
<g id="edge5" class="edge">
<title>EntityModule&#45;&gt;AdminModule</title>
<path fill="none" stroke="black" d="M517.1,-84.83C517.1,-101.2 517.1,-122.8 517.1,-122.8 517.1,-122.8 527.7,-122.8 527.7,-122.8"/>
<polygon fill="black" stroke="black" points="527.7,-126.3 537.7,-122.8 527.7,-119.3 527.7,-126.3"/>
</g>
<!-- BackupService -->
<g id="node8" class="node">
<title>BackupService</title>
<ellipse fill="#fdb462" stroke="black" cx="335" cy="-66.8" rx="69.48" ry="18"/>
<text text-anchor="middle" x="335" y="-62.6" font-family="Times,serif" font-size="14.00">BackupService</text>
</g>
<!-- BackupService&#45;&gt;AdminModule -->
<g id="edge7" class="edge">
<title>BackupService&#45;&gt;AdminModule</title>
<path fill="none" stroke="black" d="M335,-84.91C335,-104.14 335,-131.8 335,-131.8 335,-131.8 527.51,-131.8 527.51,-131.8"/>
<polygon fill="black" stroke="black" points="527.51,-135.3 537.51,-131.8 527.51,-128.3 527.51,-135.3"/>
</g>
<!-- ChildPhotoUpdateService -->
<g id="node9" class="node">
<title>ChildPhotoUpdateService</title>
<ellipse fill="#fdb462" stroke="black" cx="136" cy="-66.8" rx="111.76" ry="18"/>
<text text-anchor="middle" x="136" y="-62.6" font-family="Times,serif" font-size="14.00">ChildPhotoUpdateService</text>
</g>
<!-- ChildPhotoUpdateService&#45;&gt;AdminModule -->
<g id="edge8" class="edge">
<title>ChildPhotoUpdateService&#45;&gt;AdminModule</title>
<path fill="none" stroke="black" d="M136,-85.09C136,-107.01 136,-140.8 136,-140.8 136,-140.8 527.45,-140.8 527.45,-140.8"/>
<polygon fill="black" stroke="black" points="527.45,-144.3 537.45,-140.8 527.44,-137.3 527.45,-144.3"/>
</g>
</g>
</svg>
