<?xml version="1.0" encoding="UTF-8" standalone="no"?>
<!DOCTYPE svg PUBLIC "-//W3C//DTD SVG 1.1//EN"
 "http://www.w3.org/Graphics/SVG/1.1/DTD/svg11.dtd">
<!-- Generated by graphviz version 2.47.3 (20210619.1520)
 -->
<!-- Title: dependencies Pages: 1 -->
<svg width="180pt" height="174pt"
 viewBox="0.00 0.00 180.00 173.80" xmlns="http://www.w3.org/2000/svg" xmlns:xlink="http://www.w3.org/1999/xlink">
<g id="graph0" class="graph" transform="scale(1 1) rotate(0) translate(4 169.8)">
<title>dependencies</title>
<polygon fill="white" stroke="transparent" points="-4,4 -4,-169.8 176,-169.8 176,4 -4,4"/>
<text text-anchor="middle" x="86" y="-8.2" font-family="sans-serif" font-size="14.00">dependencies</text>
<g id="clust1" class="cluster">
<title>cluster_HelpModule</title>
<polygon fill="none" stroke="black" stroke-dasharray="1,5" points="8,-32.8 8,-157.8 164,-157.8 164,-32.8 8,-32.8"/>
</g>
<g id="clust2" class="cluster">
<title>cluster_HelpModule_declarations</title>
<polygon fill="none" stroke="black" points="16,-40.8 16,-92.8 156,-92.8 156,-40.8 16,-40.8"/>
</g>
<!-- HowToComponent -->
<g id="node1" class="node">
<title>HowToComponent</title>
<polygon fill="#ffffb3" stroke="black" points="148.1,-84.8 23.9,-84.8 23.9,-48.8 148.1,-48.8 148.1,-84.8"/>
<text text-anchor="middle" x="86" y="-62.6" font-family="Times,serif" font-size="14.00">HowToComponent</text>
</g>
<!-- HelpModule -->
<g id="node2" class="node">
<title>HelpModule</title>
<polygon fill="#8dd3c7" stroke="black" points="129.26,-149.8 126.26,-153.8 105.26,-153.8 102.26,-149.8 42.74,-149.8 42.74,-113.8 129.26,-113.8 129.26,-149.8"/>
<text text-anchor="middle" x="86" y="-127.6" font-family="Times,serif" font-size="14.00">HelpModule</text>
</g>
<!-- HowToComponent&#45;&gt;HelpModule -->
<g id="edge1" class="edge">
<title>HowToComponent&#45;&gt;HelpModule</title>
<path fill="none" stroke="black" d="M86,-84.91C86,-84.91 86,-103.79 86,-103.79"/>
<polygon fill="black" stroke="black" points="82.5,-103.79 86,-113.79 89.5,-103.79 82.5,-103.79"/>
</g>
</g>
</svg>
