<?xml version="1.0" encoding="UTF-8" standalone="no"?>
<!DOCTYPE svg PUBLIC "-//W3C//DTD SVG 1.1//EN"
 "http://www.w3.org/Graphics/SVG/1.1/DTD/svg11.dtd">
<!-- Generated by graphviz version 2.47.3 (20210619.1520)
 -->
<!-- Title: dependencies Pages: 1 -->
<svg width="2013pt" height="174pt"
 viewBox="0.00 0.00 2013.00 173.80" xmlns="http://www.w3.org/2000/svg" xmlns:xlink="http://www.w3.org/1999/xlink">
<g id="graph0" class="graph" transform="scale(1 1) rotate(0) translate(4 169.8)">
<title>dependencies</title>
<polygon fill="white" stroke="transparent" points="-4,4 -4,-169.8 2009,-169.8 2009,4 -4,4"/>
<text text-anchor="middle" x="1002.5" y="-8.2" font-family="sans-serif" font-size="14.00">dependencies</text>
<g id="clust1" class="cluster">
<title>cluster_NotesModule</title>
<polygon fill="none" stroke="black" stroke-dasharray="1,5" points="8,-32.8 8,-157.8 1997,-157.8 1997,-32.8 8,-32.8"/>
</g>
<g id="clust2" class="cluster">
<title>cluster_NotesModule_declarations</title>
<polygon fill="none" stroke="black" points="1375,-40.8 1375,-92.8 1989,-92.8 1989,-40.8 1375,-40.8"/>
</g>
<g id="clust6" class="cluster">
<title>cluster_NotesModule_imports</title>
<polygon fill="none" stroke="black" points="16,-40.8 16,-92.8 1367,-92.8 1367,-40.8 16,-40.8"/>
</g>
<!-- ChildMeetingNoteAttendanceComponent -->
<g id="node1" class="node">
<title>ChildMeetingNoteAttendanceComponent</title>
<polygon fill="#ffffb3" stroke="black" points="1981.06,-84.8 1730.94,-84.8 1730.94,-48.8 1981.06,-48.8 1981.06,-84.8"/>
<text text-anchor="middle" x="1856" y="-62.6" font-family="Times,serif" font-size="14.00">ChildMeetingNoteAttendanceComponent</text>
</g>
<!-- NotesModule -->
<g id="node4" class="node">
<title>NotesModule</title>
<polygon fill="#8dd3c7" stroke="black" points="959.21,-149.8 956.21,-153.8 935.21,-153.8 932.21,-149.8 866.79,-149.8 866.79,-113.8 959.21,-113.8 959.21,-149.8"/>
<text text-anchor="middle" x="913" y="-127.6" font-family="Times,serif" font-size="14.00">NotesModule</text>
</g>
<!-- ChildMeetingNoteAttendanceComponent&#45;&gt;NotesModule -->
<g id="edge1" class="edge">
<title>ChildMeetingNoteAttendanceComponent&#45;&gt;NotesModule</title>
<path fill="none" stroke="black" d="M1856,-84.89C1856,-107.93 1856,-144.8 1856,-144.8 1856,-144.8 969.12,-144.8 969.12,-144.8"/>
<polygon fill="black" stroke="black" points="969.12,-141.3 959.12,-144.8 969.12,-148.3 969.12,-141.3"/>
</g>
<!-- NoteDetailsComponent -->
<g id="node2" class="node">
<title>NoteDetailsComponent</title>
<polygon fill="#ffffb3" stroke="black" points="1713.2,-84.8 1564.8,-84.8 1564.8,-48.8 1713.2,-48.8 1713.2,-84.8"/>
<text text-anchor="middle" x="1639" y="-62.6" font-family="Times,serif" font-size="14.00">NoteDetailsComponent</text>
</g>
<!-- NoteDetailsComponent&#45;&gt;NotesModule -->
<g id="edge2" class="edge">
<title>NoteDetailsComponent&#45;&gt;NotesModule</title>
<path fill="none" stroke="black" d="M1639,-85.08C1639,-106.12 1639,-137.8 1639,-137.8 1639,-137.8 969.24,-137.8 969.24,-137.8"/>
<polygon fill="black" stroke="black" points="969.24,-134.3 959.24,-137.8 969.24,-141.3 969.24,-134.3"/>
</g>
<!-- NotesManagerComponent -->
<g id="node3" class="node">
<title>NotesManagerComponent</title>
<polygon fill="#ffffb3" stroke="black" points="1546.74,-84.8 1383.26,-84.8 1383.26,-48.8 1546.74,-48.8 1546.74,-84.8"/>
<text text-anchor="middle" x="1465" y="-62.6" font-family="Times,serif" font-size="14.00">NotesManagerComponent</text>
</g>
<!-- NotesManagerComponent&#45;&gt;NotesModule -->
<g id="edge3" class="edge">
<title>NotesManagerComponent&#45;&gt;NotesModule</title>
<path fill="none" stroke="black" d="M1465,-84.91C1465,-104.14 1465,-131.8 1465,-131.8 1465,-131.8 969.11,-131.8 969.11,-131.8"/>
<polygon fill="black" stroke="black" points="969.11,-128.3 959.11,-131.8 969.11,-135.3 969.11,-128.3"/>
</g>
<!-- AttendanceModule -->
<g id="node5" class="node">
<title>AttendanceModule</title>
<polygon fill="#8dd3c7" stroke="black" points="1358.8,-84.8 1355.8,-88.8 1334.8,-88.8 1331.8,-84.8 1235.2,-84.8 1235.2,-48.8 1358.8,-48.8 1358.8,-84.8"/>
<text text-anchor="middle" x="1297" y="-62.6" font-family="Times,serif" font-size="14.00">AttendanceModule</text>
</g>
<!-- AttendanceModule&#45;&gt;NotesModule -->
<g id="edge4" class="edge">
<title>AttendanceModule&#45;&gt;NotesModule</title>
<path fill="none" stroke="black" d="M1297,-84.82C1297,-102.17 1297,-125.8 1297,-125.8 1297,-125.8 969.32,-125.8 969.32,-125.8"/>
<polygon fill="black" stroke="black" points="969.32,-122.3 959.32,-125.8 969.32,-129.3 969.32,-122.3"/>
</g>
<!-- ChildrenModule -->
<g id="node6" class="node">
<title>ChildrenModule</title>
<polygon fill="#8dd3c7" stroke="black" points="1217.04,-84.8 1214.04,-88.8 1193.04,-88.8 1190.04,-84.8 1108.96,-84.8 1108.96,-48.8 1217.04,-48.8 1217.04,-84.8"/>
<text text-anchor="middle" x="1163" y="-62.6" font-family="Times,serif" font-size="14.00">ChildrenModule</text>
</g>
<!-- ChildrenModule&#45;&gt;NotesModule -->
<g id="edge5" class="edge">
<title>ChildrenModule&#45;&gt;NotesModule</title>
<path fill="none" stroke="black" d="M1163,-85.04C1163,-100.37 1163,-119.8 1163,-119.8 1163,-119.8 969.15,-119.8 969.15,-119.8"/>
<polygon fill="black" stroke="black" points="969.15,-116.3 959.15,-119.8 969.15,-123.3 969.15,-116.3"/>
</g>
<!-- ConfigurableEnumModule -->
<g id="node7" class="node">
<title>ConfigurableEnumModule</title>
<polygon fill="#8dd3c7" stroke="black" points="1090.36,-84.8 1087.36,-88.8 1066.36,-88.8 1063.36,-84.8 923.64,-84.8 923.64,-48.8 1090.36,-48.8 1090.36,-84.8"/>
<text text-anchor="middle" x="1007" y="-62.6" font-family="Times,serif" font-size="14.00">ConfigurableEnumModule</text>
</g>
<!-- ConfigurableEnumModule&#45;&gt;NotesModule -->
<g id="edge6" class="edge">
<title>ConfigurableEnumModule&#45;&gt;NotesModule</title>
<path fill="none" stroke="black" d="M941.34,-84.91C941.34,-84.91 941.34,-103.79 941.34,-103.79"/>
<polygon fill="black" stroke="black" points="937.84,-103.79 941.34,-113.79 944.84,-103.79 937.84,-103.79"/>
</g>
<!-- ConfirmationDialogModule -->
<g id="node8" class="node">
<title>ConfirmationDialogModule</title>
<polygon fill="#8dd3c7" stroke="black" points="905.59,-84.8 902.59,-88.8 881.59,-88.8 878.59,-84.8 732.41,-84.8 732.41,-48.8 905.59,-48.8 905.59,-84.8"/>
<text text-anchor="middle" x="819" y="-62.6" font-family="Times,serif" font-size="14.00">ConfirmationDialogModule</text>
</g>
<!-- ConfirmationDialogModule&#45;&gt;NotesModule -->
<g id="edge7" class="edge">
<title>ConfirmationDialogModule&#45;&gt;NotesModule</title>
<path fill="none" stroke="black" d="M886.22,-84.91C886.22,-84.91 886.22,-103.79 886.22,-103.79"/>
<polygon fill="black" stroke="black" points="882.72,-103.79 886.22,-113.79 889.72,-103.79 882.72,-103.79"/>
</g>
<!-- EntityListModule -->
<g id="node9" class="node">
<title>EntityListModule</title>
<polygon fill="#8dd3c7" stroke="black" points="714.55,-84.8 711.55,-88.8 690.55,-88.8 687.55,-84.8 599.45,-84.8 599.45,-48.8 714.55,-48.8 714.55,-84.8"/>
<text text-anchor="middle" x="657" y="-62.6" font-family="Times,serif" font-size="14.00">EntityListModule</text>
</g>
<!-- EntityListModule&#45;&gt;NotesModule -->
<g id="edge8" class="edge">
<title>EntityListModule&#45;&gt;NotesModule</title>
<path fill="none" stroke="black" d="M657,-85.04C657,-100.37 657,-119.8 657,-119.8 657,-119.8 856.64,-119.8 856.64,-119.8"/>
<polygon fill="black" stroke="black" points="856.64,-123.3 866.64,-119.8 856.64,-116.3 856.64,-123.3"/>
</g>
<!-- EntitySubrecordModule -->
<g id="node10" class="node">
<title>EntitySubrecordModule</title>
<polygon fill="#8dd3c7" stroke="black" points="581.81,-84.8 578.81,-88.8 557.81,-88.8 554.81,-84.8 430.19,-84.8 430.19,-48.8 581.81,-48.8 581.81,-84.8"/>
<text text-anchor="middle" x="506" y="-62.6" font-family="Times,serif" font-size="14.00">EntitySubrecordModule</text>
</g>
<!-- EntitySubrecordModule&#45;&gt;NotesModule -->
<g id="edge9" class="edge">
<title>EntitySubrecordModule&#45;&gt;NotesModule</title>
<path fill="none" stroke="black" d="M506,-84.82C506,-102.17 506,-125.8 506,-125.8 506,-125.8 856.71,-125.8 856.71,-125.8"/>
<polygon fill="black" stroke="black" points="856.71,-129.3 866.71,-125.8 856.71,-122.3 856.71,-129.3"/>
</g>
<!-- EntityUtilsModule -->
<g id="node11" class="node">
<title>EntityUtilsModule</title>
<polygon fill="#8dd3c7" stroke="black" points="412.5,-84.8 409.5,-88.8 388.5,-88.8 385.5,-84.8 291.5,-84.8 291.5,-48.8 412.5,-48.8 412.5,-84.8"/>
<text text-anchor="middle" x="352" y="-62.6" font-family="Times,serif" font-size="14.00">EntityUtilsModule</text>
</g>
<!-- EntityUtilsModule&#45;&gt;NotesModule -->
<g id="edge10" class="edge">
<title>EntityUtilsModule&#45;&gt;NotesModule</title>
<path fill="none" stroke="black" d="M352,-84.91C352,-104.14 352,-131.8 352,-131.8 352,-131.8 856.61,-131.8 856.61,-131.8"/>
<polygon fill="black" stroke="black" points="856.61,-135.3 866.61,-131.8 856.61,-128.3 856.61,-135.3"/>
</g>
<!-- FormDialogModule -->
<g id="node12" class="node">
<title>FormDialogModule</title>
<polygon fill="#8dd3c7" stroke="black" points="273.99,-84.8 270.99,-88.8 249.99,-88.8 246.99,-84.8 146.01,-84.8 146.01,-48.8 273.99,-48.8 273.99,-84.8"/>
<text text-anchor="middle" x="210" y="-62.6" font-family="Times,serif" font-size="14.00">FormDialogModule</text>
</g>
<!-- FormDialogModule&#45;&gt;NotesModule -->
<g id="edge11" class="edge">
<title>FormDialogModule&#45;&gt;NotesModule</title>
<path fill="none" stroke="black" d="M210,-85.08C210,-106.12 210,-137.8 210,-137.8 210,-137.8 856.87,-137.8 856.87,-137.8"/>
<polygon fill="black" stroke="black" points="856.87,-141.3 866.87,-137.8 856.87,-134.3 856.87,-141.3"/>
</g>
<!-- SchoolsModule -->
<g id="node13" class="node">
<title>SchoolsModule</title>
<polygon fill="#8dd3c7" stroke="black" points="127.88,-84.8 124.88,-88.8 103.88,-88.8 100.88,-84.8 24.12,-84.8 24.12,-48.8 127.88,-48.8 127.88,-84.8"/>
<text text-anchor="middle" x="76" y="-62.6" font-family="Times,serif" font-size="14.00">SchoolsModule</text>
</g>
<!-- SchoolsModule&#45;&gt;NotesModule -->
<g id="edge12" class="edge">
<title>SchoolsModule&#45;&gt;NotesModule</title>
<path fill="none" stroke="black" d="M76,-84.89C76,-107.93 76,-144.8 76,-144.8 76,-144.8 856.81,-144.8 856.81,-144.8"/>
<polygon fill="black" stroke="black" points="856.81,-148.3 866.81,-144.8 856.81,-141.3 856.81,-148.3"/>
</g>
</g>
</svg>
