<?xml version="1.0" encoding="UTF-8" standalone="no"?>
<!DOCTYPE svg PUBLIC "-//W3C//DTD SVG 1.1//EN"
 "http://www.w3.org/Graphics/SVG/1.1/DTD/svg11.dtd">
<!-- Generated by graphviz version 2.47.3 (20210619.1520)
 -->
<!-- Title: dependencies Pages: 1 -->
<svg width="4632pt" height="247pt"
 viewBox="0.00 0.00 4632.00 246.80" xmlns="http://www.w3.org/2000/svg" xmlns:xlink="http://www.w3.org/1999/xlink">
<g id="graph0" class="graph" transform="scale(1 1) rotate(0) translate(4 242.8)">
<title>dependencies</title>
<polygon fill="white" stroke="transparent" points="-4,4 -4,-242.8 4628,-242.8 4628,4 -4,4"/>
<text text-anchor="middle" x="2312" y="-8.2" font-family="sans-serif" font-size="14.00">dependencies</text>
<g id="clust1" class="cluster">
<title>cluster_AppModule</title>
<polygon fill="none" stroke="black" stroke-dasharray="1,5" points="8,-32.8 8,-230.8 4616,-230.8 4616,-32.8 8,-32.8"/>
</g>
<g id="clust2" class="cluster">
<title>cluster_AppModule_declarations</title>
<polygon fill="none" stroke="black" points="4486,-40.8 4486,-92.8 4608,-92.8 4608,-40.8 4486,-40.8"/>
</g>
<g id="clust4" class="cluster">
<title>cluster_AppModule_imports</title>
<polygon fill="none" stroke="black" points="194,-40.8 194,-92.8 4478,-92.8 4478,-40.8 194,-40.8"/>
</g>
<g id="clust6" class="cluster">
<title>cluster_AppModule_bootstrap</title>
<polygon fill="none" stroke="black" points="2225,-170.8 2225,-222.8 2349,-222.8 2349,-170.8 2225,-170.8"/>
</g>
<g id="clust7" class="cluster">
<title>cluster_AppModule_providers</title>
<polygon fill="none" stroke="black" points="16,-40.8 16,-92.8 186,-92.8 186,-40.8 16,-40.8"/>
</g>
<!-- AppComponent -->
<g id="node1" class="node">
<title>AppComponent</title>
<polygon fill="#ffffb3" stroke="black" points="4599.94,-84.8 4494.06,-84.8 4494.06,-48.8 4599.94,-48.8 4599.94,-84.8"/>
<text text-anchor="middle" x="4547" y="-62.6" font-family="Times,serif" font-size="14.00">AppComponent</text>
</g>
<!-- AppModule -->
<g id="node2" class="node">
<title>AppModule</title>
<polygon fill="#8dd3c7" stroke="black" points="2328.66,-149.8 2325.66,-153.8 2304.66,-153.8 2301.66,-149.8 2245.34,-149.8 2245.34,-113.8 2328.66,-113.8 2328.66,-149.8"/>
<text text-anchor="middle" x="2287" y="-127.6" font-family="Times,serif" font-size="14.00">AppModule</text>
</g>
<!-- AppComponent&#45;&gt;AppModule -->
<g id="edge1" class="edge">
<title>AppComponent&#45;&gt;AppModule</title>
<path fill="none" stroke="black" d="M4547,-85.18C4547,-109.08 4547,-147.8 4547,-147.8 4547,-147.8 2339.14,-147.8 2339.14,-147.8"/>
<polygon fill="black" stroke="black" points="2339.14,-144.3 2329.14,-147.8 2339.14,-151.3 2339.14,-144.3"/>
</g>
<!-- AppComponent  -->
<g id="node33" class="node">
<title>AppComponent </title>
<polygon fill="#80b1d3" stroke="black" points="2341.44,-214.8 2232.56,-214.8 2232.56,-178.8 2341.44,-178.8 2341.44,-214.8"/>
<text text-anchor="middle" x="2287" y="-192.6" font-family="Times,serif" font-size="14.00">AppComponent </text>
</g>
<!-- AppModule&#45;&gt;AppComponent  -->
<g id="edge32" class="edge">
<title>AppModule&#45;&gt;AppComponent </title>
<path fill="none" stroke="black" stroke-dasharray="1,5" d="M2287,-149.91C2287,-149.91 2287,-168.79 2287,-168.79"/>
<polygon fill="black" stroke="black" points="2283.5,-168.79 2287,-178.79 2290.5,-168.79 2283.5,-168.79"/>
</g>
<!-- AdminModule -->
<g id="node3" class="node">
<title>AdminModule</title>
<polygon fill="#8dd3c7" stroke="black" points="4470.44,-84.8 4467.44,-88.8 4446.44,-88.8 4443.44,-84.8 4371.56,-84.8 4371.56,-48.8 4470.44,-48.8 4470.44,-84.8"/>
<text text-anchor="middle" x="4421" y="-62.6" font-family="Times,serif" font-size="14.00">AdminModule</text>
</g>
<!-- AdminModule&#45;&gt;AppModule -->
<g id="edge2" class="edge">
<title>AdminModule&#45;&gt;AppModule</title>
<path fill="none" stroke="black" d="M4421,-85.12C4421,-108.46 4421,-145.8 4421,-145.8 4421,-145.8 2338.67,-145.8 2338.67,-145.8"/>
<polygon fill="black" stroke="black" points="2338.67,-142.3 2328.67,-145.8 2338.67,-149.3 2338.67,-142.3"/>
</g>
<!-- AlertsModule -->
<g id="node4" class="node">
<title>AlertsModule</title>
<polygon fill="#8dd3c7" stroke="black" points="4353.76,-84.8 4350.76,-88.8 4329.76,-88.8 4326.76,-84.8 4260.24,-84.8 4260.24,-48.8 4353.76,-48.8 4353.76,-84.8"/>
<text text-anchor="middle" x="4307" y="-62.6" font-family="Times,serif" font-size="14.00">AlertsModule</text>
</g>
<!-- AlertsModule&#45;&gt;AppModule -->
<g id="edge3" class="edge">
<title>AlertsModule&#45;&gt;AppModule</title>
<path fill="none" stroke="black" d="M4307,-85.05C4307,-107.82 4307,-143.8 4307,-143.8 4307,-143.8 2338.73,-143.8 2338.73,-143.8"/>
<polygon fill="black" stroke="black" points="2338.73,-140.3 2328.73,-143.8 2338.73,-147.3 2338.73,-140.3"/>
</g>
<!-- AppConfigModule -->
<g id="node5" class="node">
<title>AppConfigModule</title>
<polygon fill="#8dd3c7" stroke="black" points="4242.05,-84.8 4239.05,-88.8 4218.05,-88.8 4215.05,-84.8 4119.95,-84.8 4119.95,-48.8 4242.05,-48.8 4242.05,-84.8"/>
<text text-anchor="middle" x="4181" y="-62.6" font-family="Times,serif" font-size="14.00">AppConfigModule</text>
</g>
<!-- AppConfigModule&#45;&gt;AppModule -->
<g id="edge4" class="edge">
<title>AppConfigModule&#45;&gt;AppModule</title>
<path fill="none" stroke="black" d="M4181,-85.09C4181,-107.01 4181,-140.8 4181,-140.8 4181,-140.8 2338.77,-140.8 2338.77,-140.8"/>
<polygon fill="black" stroke="black" points="2338.77,-137.3 2328.77,-140.8 2338.77,-144.3 2338.77,-137.3"/>
</g>
<!-- AttendanceModule -->
<g id="node6" class="node">
<title>AttendanceModule</title>
<polygon fill="#8dd3c7" stroke="black" points="4101.8,-84.8 4098.8,-88.8 4077.8,-88.8 4074.8,-84.8 3978.2,-84.8 3978.2,-48.8 4101.8,-48.8 4101.8,-84.8"/>
<text text-anchor="middle" x="4040" y="-62.6" font-family="Times,serif" font-size="14.00">AttendanceModule</text>
</g>
<!-- AttendanceModule&#45;&gt;AppModule -->
<g id="edge5" class="edge">
<title>AttendanceModule&#45;&gt;AppModule</title>
<path fill="none" stroke="black" d="M4040,-84.97C4040,-106.3 4040,-138.8 4040,-138.8 4040,-138.8 2339.03,-138.8 2339.03,-138.8"/>
<polygon fill="black" stroke="black" points="2339.03,-135.3 2329.03,-138.8 2339.03,-142.3 2339.03,-135.3"/>
</g>
<!-- ChildrenModule -->
<g id="node7" class="node">
<title>ChildrenModule</title>
<polygon fill="#8dd3c7" stroke="black" points="3960.04,-84.8 3957.04,-88.8 3936.04,-88.8 3933.04,-84.8 3851.96,-84.8 3851.96,-48.8 3960.04,-48.8 3960.04,-84.8"/>
<text text-anchor="middle" x="3906" y="-62.6" font-family="Times,serif" font-size="14.00">ChildrenModule</text>
</g>
<!-- ChildrenModule&#45;&gt;AppModule -->
<g id="edge6" class="edge">
<title>ChildrenModule&#45;&gt;AppModule</title>
<path fill="none" stroke="black" d="M3906,-84.83C3906,-105.57 3906,-136.8 3906,-136.8 3906,-136.8 2339.06,-136.8 2339.06,-136.8"/>
<polygon fill="black" stroke="black" points="2339.06,-133.3 2329.06,-136.8 2339.06,-140.3 2339.06,-133.3"/>
</g>
<!-- ConfigModule -->
<g id="node8" class="node">
<title>ConfigModule</title>
<polygon fill="#8dd3c7" stroke="black" points="3834.44,-84.8 3831.44,-88.8 3810.44,-88.8 3807.44,-84.8 3735.56,-84.8 3735.56,-48.8 3834.44,-48.8 3834.44,-84.8"/>
<text text-anchor="middle" x="3785" y="-62.6" font-family="Times,serif" font-size="14.00">ConfigModule</text>
</g>
<!-- ConfigModule&#45;&gt;AppModule -->
<g id="edge7" class="edge">
<title>ConfigModule&#45;&gt;AppModule</title>
<path fill="none" stroke="black" d="M3785,-85.02C3785,-105.17 3785,-134.8 3785,-134.8 3785,-134.8 2339.02,-134.8 2339.02,-134.8"/>
<polygon fill="black" stroke="black" points="2339.02,-131.3 2329.02,-134.8 2339.02,-138.3 2339.02,-131.3"/>
</g>
<!-- ConfigurableEnumModule -->
<g id="node9" class="node">
<title>ConfigurableEnumModule</title>
<polygon fill="#8dd3c7" stroke="black" points="3717.36,-84.8 3714.36,-88.8 3693.36,-88.8 3690.36,-84.8 3550.64,-84.8 3550.64,-48.8 3717.36,-48.8 3717.36,-84.8"/>
<text text-anchor="middle" x="3634" y="-62.6" font-family="Times,serif" font-size="14.00">ConfigurableEnumModule</text>
</g>
<!-- ConfigurableEnumModule&#45;&gt;AppModule -->
<g id="edge8" class="edge">
<title>ConfigurableEnumModule&#45;&gt;AppModule</title>
<path fill="none" stroke="black" d="M3634,-84.91C3634,-104.14 3634,-131.8 3634,-131.8 3634,-131.8 2338.79,-131.8 2338.79,-131.8"/>
<polygon fill="black" stroke="black" points="2338.79,-128.3 2328.79,-131.8 2338.79,-135.3 2338.79,-128.3"/>
</g>
<!-- ConfirmationDialogModule -->
<g id="node10" class="node">
<title>ConfirmationDialogModule</title>
<polygon fill="#8dd3c7" stroke="black" points="3532.59,-84.8 3529.59,-88.8 3508.59,-88.8 3505.59,-84.8 3359.41,-84.8 3359.41,-48.8 3532.59,-48.8 3532.59,-84.8"/>
<text text-anchor="middle" x="3446" y="-62.6" font-family="Times,serif" font-size="14.00">ConfirmationDialogModule</text>
</g>
<!-- ConfirmationDialogModule&#45;&gt;AppModule -->
<g id="edge9" class="edge">
<title>ConfirmationDialogModule&#45;&gt;AppModule</title>
<path fill="none" stroke="black" d="M3446,-85.02C3446,-103.63 3446,-129.8 3446,-129.8 3446,-129.8 2338.93,-129.8 2338.93,-129.8"/>
<polygon fill="black" stroke="black" points="2338.93,-126.3 2328.93,-129.8 2338.93,-133.3 2338.93,-126.3"/>
</g>
<!-- DashboardModule -->
<g id="node11" class="node">
<title>DashboardModule</title>
<polygon fill="#8dd3c7" stroke="black" points="3341.19,-84.8 3338.19,-88.8 3317.19,-88.8 3314.19,-84.8 3220.81,-84.8 3220.81,-48.8 3341.19,-48.8 3341.19,-84.8"/>
<text text-anchor="middle" x="3281" y="-62.6" font-family="Times,serif" font-size="14.00">DashboardModule</text>
</g>
<!-- DashboardModule&#45;&gt;AppModule -->
<g id="edge10" class="edge">
<title>DashboardModule&#45;&gt;AppModule</title>
<path fill="none" stroke="black" d="M3281,-85.1C3281,-103.07 3281,-127.8 3281,-127.8 3281,-127.8 2338.76,-127.8 2338.76,-127.8"/>
<polygon fill="black" stroke="black" points="2338.76,-124.3 2328.76,-127.8 2338.76,-131.3 2338.76,-124.3"/>
</g>
<!-- DashboardShortcutWidgetModule -->
<g id="node12" class="node">
<title>DashboardShortcutWidgetModule</title>
<polygon fill="#8dd3c7" stroke="black" points="3202.34,-84.8 3199.34,-88.8 3178.34,-88.8 3175.34,-84.8 2993.66,-84.8 2993.66,-48.8 3202.34,-48.8 3202.34,-84.8"/>
<text text-anchor="middle" x="3098" y="-62.6" font-family="Times,serif" font-size="14.00">DashboardShortcutWidgetModule</text>
</g>
<!-- DashboardShortcutWidgetModule&#45;&gt;AppModule -->
<g id="edge11" class="edge">
<title>DashboardShortcutWidgetModule&#45;&gt;AppModule</title>
<path fill="none" stroke="black" d="M3098,-84.82C3098,-102.17 3098,-125.8 3098,-125.8 3098,-125.8 2338.9,-125.8 2338.9,-125.8"/>
<polygon fill="black" stroke="black" points="2338.9,-122.3 2328.9,-125.8 2338.9,-129.3 2338.9,-122.3"/>
</g>
<!-- DemoDataModule -->
<g id="node13" class="node">
<title>DemoDataModule</title>
<polygon fill="#8dd3c7" stroke="black" points="2975.19,-84.8 2972.19,-88.8 2951.19,-88.8 2948.19,-84.8 2854.81,-84.8 2854.81,-48.8 2975.19,-48.8 2975.19,-84.8"/>
<text text-anchor="middle" x="2915" y="-62.6" font-family="Times,serif" font-size="14.00">DemoDataModule</text>
</g>
<!-- DemoDataModule&#45;&gt;AppModule -->
<g id="edge12" class="edge">
<title>DemoDataModule&#45;&gt;AppModule</title>
<path fill="none" stroke="black" d="M2915,-84.83C2915,-101.2 2915,-122.8 2915,-122.8 2915,-122.8 2338.69,-122.8 2338.69,-122.8"/>
<polygon fill="black" stroke="black" points="2338.69,-119.3 2328.69,-122.8 2338.69,-126.3 2338.69,-119.3"/>
</g>
<!-- EntityDetailsModule -->
<g id="node14" class="node">
<title>EntityDetailsModule</title>
<polygon fill="#8dd3c7" stroke="black" points="2836.93,-84.8 2833.93,-88.8 2812.93,-88.8 2809.93,-84.8 2703.07,-84.8 2703.07,-48.8 2836.93,-48.8 2836.93,-84.8"/>
<text text-anchor="middle" x="2770" y="-62.6" font-family="Times,serif" font-size="14.00">EntityDetailsModule</text>
</g>
<!-- EntityDetailsModule&#45;&gt;AppModule -->
<g id="edge13" class="edge">
<title>EntityDetailsModule&#45;&gt;AppModule</title>
<path fill="none" stroke="black" d="M2770,-85.08C2770,-100.75 2770,-120.8 2770,-120.8 2770,-120.8 2339.02,-120.8 2339.02,-120.8"/>
<polygon fill="black" stroke="black" points="2339.02,-117.3 2329.02,-120.8 2339.02,-124.3 2339.02,-117.3"/>
</g>
<!-- EntityListModule -->
<g id="node15" class="node">
<title>EntityListModule</title>
<polygon fill="#8dd3c7" stroke="black" points="2685.55,-84.8 2682.55,-88.8 2661.55,-88.8 2658.55,-84.8 2570.45,-84.8 2570.45,-48.8 2685.55,-48.8 2685.55,-84.8"/>
<text text-anchor="middle" x="2628" y="-62.6" font-family="Times,serif" font-size="14.00">EntityListModule</text>
</g>
<!-- EntityListModule&#45;&gt;AppModule -->
<g id="edge14" class="edge">
<title>EntityListModule&#45;&gt;AppModule</title>
<path fill="none" stroke="black" d="M2628,-84.99C2628,-99.98 2628,-118.8 2628,-118.8 2628,-118.8 2338.81,-118.8 2338.81,-118.8"/>
<polygon fill="black" stroke="black" points="2338.81,-115.3 2328.81,-118.8 2338.81,-122.3 2338.81,-115.3"/>
</g>
<!-- EntityModule -->
<g id="node16" class="node">
<title>EntityModule</title>
<polygon fill="#8dd3c7" stroke="black" points="2551.77,-84.8 2548.77,-88.8 2527.77,-88.8 2524.77,-84.8 2458.23,-84.8 2458.23,-48.8 2551.77,-48.8 2551.77,-84.8"/>
<text text-anchor="middle" x="2505" y="-62.6" font-family="Times,serif" font-size="14.00">EntityModule</text>
</g>
<!-- EntityModule&#45;&gt;AppModule -->
<g id="edge15" class="edge">
<title>EntityModule&#45;&gt;AppModule</title>
<path fill="none" stroke="black" d="M2505,-84.85C2505,-99.17 2505,-116.8 2505,-116.8 2505,-116.8 2338.77,-116.8 2338.77,-116.8"/>
<polygon fill="black" stroke="black" points="2338.77,-113.3 2328.77,-116.8 2338.77,-120.3 2338.77,-113.3"/>
</g>
<!-- EntitySubrecordModule -->
<g id="node17" class="node">
<title>EntitySubrecordModule</title>
<polygon fill="#8dd3c7" stroke="black" points="2439.81,-84.8 2436.81,-88.8 2415.81,-88.8 2412.81,-84.8 2288.19,-84.8 2288.19,-48.8 2439.81,-48.8 2439.81,-84.8"/>
<text text-anchor="middle" x="2364" y="-62.6" font-family="Times,serif" font-size="14.00">EntitySubrecordModule</text>
</g>
<!-- EntitySubrecordModule&#45;&gt;AppModule -->
<g id="edge16" class="edge">
<title>EntitySubrecordModule&#45;&gt;AppModule</title>
<path fill="none" stroke="black" d="M2308.59,-84.91C2308.59,-84.91 2308.59,-103.79 2308.59,-103.79"/>
<polygon fill="black" stroke="black" points="2305.09,-103.79 2308.59,-113.79 2312.09,-103.79 2305.09,-103.79"/>
</g>
<!-- EntityUtilsModule -->
<g id="node18" class="node">
<title>EntityUtilsModule</title>
<polygon fill="#8dd3c7" stroke="black" points="2270.5,-84.8 2267.5,-88.8 2246.5,-88.8 2243.5,-84.8 2149.5,-84.8 2149.5,-48.8 2270.5,-48.8 2270.5,-84.8"/>
<text text-anchor="middle" x="2210" y="-62.6" font-family="Times,serif" font-size="14.00">EntityUtilsModule</text>
</g>
<!-- EntityUtilsModule&#45;&gt;AppModule -->
<g id="edge17" class="edge">
<title>EntityUtilsModule&#45;&gt;AppModule</title>
<path fill="none" stroke="black" d="M2257.84,-84.91C2257.84,-84.91 2257.84,-103.79 2257.84,-103.79"/>
<polygon fill="black" stroke="black" points="2254.34,-103.79 2257.84,-113.79 2261.34,-103.79 2254.34,-103.79"/>
</g>
<!-- FontAwesomeIconsModule -->
<g id="node19" class="node">
<title>FontAwesomeIconsModule</title>
<polygon fill="#8dd3c7" stroke="black" points="2131.52,-84.8 2128.52,-88.8 2107.52,-88.8 2104.52,-84.8 1960.48,-84.8 1960.48,-48.8 2131.52,-48.8 2131.52,-84.8"/>
<text text-anchor="middle" x="2046" y="-62.6" font-family="Times,serif" font-size="14.00">FontAwesomeIconsModule</text>
</g>
<!-- FontAwesomeIconsModule&#45;&gt;AppModule -->
<g id="edge18" class="edge">
<title>FontAwesomeIconsModule&#45;&gt;AppModule</title>
<path fill="none" stroke="black" d="M2046,-84.85C2046,-99.17 2046,-116.8 2046,-116.8 2046,-116.8 2235.3,-116.8 2235.3,-116.8"/>
<polygon fill="black" stroke="black" points="2235.3,-120.3 2245.3,-116.8 2235.3,-113.3 2235.3,-120.3"/>
</g>
<!-- FormDialogModule -->
<g id="node20" class="node">
<title>FormDialogModule</title>
<polygon fill="#8dd3c7" stroke="black" points="1941.99,-84.8 1938.99,-88.8 1917.99,-88.8 1914.99,-84.8 1814.01,-84.8 1814.01,-48.8 1941.99,-48.8 1941.99,-84.8"/>
<text text-anchor="middle" x="1878" y="-62.6" font-family="Times,serif" font-size="14.00">FormDialogModule</text>
</g>
<!-- FormDialogModule&#45;&gt;AppModule -->
<g id="edge19" class="edge">
<title>FormDialogModule&#45;&gt;AppModule</title>
<path fill="none" stroke="black" d="M1878,-84.99C1878,-99.98 1878,-118.8 1878,-118.8 1878,-118.8 2235.15,-118.8 2235.15,-118.8"/>
<polygon fill="black" stroke="black" points="2235.15,-122.3 2245.15,-118.8 2235.15,-115.3 2235.15,-122.3"/>
</g>
<!-- HelpModule -->
<g id="node21" class="node">
<title>HelpModule</title>
<polygon fill="#8dd3c7" stroke="black" points="1796.26,-84.8 1793.26,-88.8 1772.26,-88.8 1769.26,-84.8 1709.74,-84.8 1709.74,-48.8 1796.26,-48.8 1796.26,-84.8"/>
<text text-anchor="middle" x="1753" y="-62.6" font-family="Times,serif" font-size="14.00">HelpModule</text>
</g>
<!-- HelpModule&#45;&gt;AppModule -->
<g id="edge20" class="edge">
<title>HelpModule&#45;&gt;AppModule</title>
<path fill="none" stroke="black" d="M1753,-85.08C1753,-100.75 1753,-120.8 1753,-120.8 1753,-120.8 2235.1,-120.8 2235.1,-120.8"/>
<polygon fill="black" stroke="black" points="2235.1,-124.3 2245.1,-120.8 2235.1,-117.3 2235.1,-124.3"/>
</g>
<!-- HistoricalDataModule -->
<g id="node22" class="node">
<title>HistoricalDataModule</title>
<polygon fill="#8dd3c7" stroke="black" points="1691.68,-84.8 1688.68,-88.8 1667.68,-88.8 1664.68,-84.8 1550.32,-84.8 1550.32,-48.8 1691.68,-48.8 1691.68,-84.8"/>
<text text-anchor="middle" x="1621" y="-62.6" font-family="Times,serif" font-size="14.00">HistoricalDataModule</text>
</g>
<!-- HistoricalDataModule&#45;&gt;AppModule -->
<g id="edge21" class="edge">
<title>HistoricalDataModule&#45;&gt;AppModule</title>
<path fill="none" stroke="black" d="M1621,-84.83C1621,-101.2 1621,-122.8 1621,-122.8 1621,-122.8 2235.34,-122.8 2235.34,-122.8"/>
<polygon fill="black" stroke="black" points="2235.34,-126.3 2245.34,-122.8 2235.34,-119.3 2235.34,-126.3"/>
</g>
<!-- LatestChangesModule -->
<g id="node23" class="node">
<title>LatestChangesModule</title>
<polygon fill="#8dd3c7" stroke="black" points="1531.97,-84.8 1528.97,-88.8 1507.97,-88.8 1504.97,-84.8 1390.03,-84.8 1390.03,-48.8 1531.97,-48.8 1531.97,-84.8"/>
<text text-anchor="middle" x="1461" y="-62.6" font-family="Times,serif" font-size="14.00">LatestChangesModule</text>
</g>
<!-- LatestChangesModule&#45;&gt;AppModule -->
<g id="edge22" class="edge">
<title>LatestChangesModule&#45;&gt;AppModule</title>
<path fill="none" stroke="black" d="M1461,-84.82C1461,-102.17 1461,-125.8 1461,-125.8 1461,-125.8 2235.19,-125.8 2235.19,-125.8"/>
<polygon fill="black" stroke="black" points="2235.19,-129.3 2245.19,-125.8 2235.19,-122.3 2235.19,-129.3"/>
</g>
<!-- NavigationModule -->
<g id="node24" class="node">
<title>NavigationModule</title>
<polygon fill="#8dd3c7" stroke="black" points="1371.76,-84.8 1368.76,-88.8 1347.76,-88.8 1344.76,-84.8 1250.24,-84.8 1250.24,-48.8 1371.76,-48.8 1371.76,-84.8"/>
<text text-anchor="middle" x="1311" y="-62.6" font-family="Times,serif" font-size="14.00">NavigationModule</text>
</g>
<!-- NavigationModule&#45;&gt;AppModule -->
<g id="edge23" class="edge">
<title>NavigationModule&#45;&gt;AppModule</title>
<path fill="none" stroke="black" d="M1311,-85.1C1311,-103.07 1311,-127.8 1311,-127.8 1311,-127.8 2235.06,-127.8 2235.06,-127.8"/>
<polygon fill="black" stroke="black" points="2235.06,-131.3 2245.06,-127.8 2235.06,-124.3 2235.06,-131.3"/>
</g>
<!-- ProgressDashboardWidgetModule -->
<g id="node25" class="node">
<title>ProgressDashboardWidgetModule</title>
<polygon fill="#8dd3c7" stroke="black" points="1231.61,-84.8 1228.61,-88.8 1207.61,-88.8 1204.61,-84.8 1022.39,-84.8 1022.39,-48.8 1231.61,-48.8 1231.61,-84.8"/>
<text text-anchor="middle" x="1127" y="-62.6" font-family="Times,serif" font-size="14.00">ProgressDashboardWidgetModule</text>
</g>
<!-- ProgressDashboardWidgetModule&#45;&gt;AppModule -->
<g id="edge24" class="edge">
<title>ProgressDashboardWidgetModule&#45;&gt;AppModule</title>
<path fill="none" stroke="black" d="M1127,-85.02C1127,-103.63 1127,-129.8 1127,-129.8 1127,-129.8 2235.03,-129.8 2235.03,-129.8"/>
<polygon fill="black" stroke="black" points="2235.03,-133.3 2245.03,-129.8 2235.03,-126.3 2235.03,-133.3"/>
</g>
<!-- ReportingModule -->
<g id="node26" class="node">
<title>ReportingModule</title>
<polygon fill="#8dd3c7" stroke="black" points="1003.54,-84.8 1000.54,-88.8 979.54,-88.8 976.54,-84.8 888.46,-84.8 888.46,-48.8 1003.54,-48.8 1003.54,-84.8"/>
<text text-anchor="middle" x="946" y="-62.6" font-family="Times,serif" font-size="14.00">ReportingModule</text>
</g>
<!-- ReportingModule&#45;&gt;AppModule -->
<g id="edge25" class="edge">
<title>ReportingModule&#45;&gt;AppModule</title>
<path fill="none" stroke="black" d="M946,-84.91C946,-104.14 946,-131.8 946,-131.8 946,-131.8 2235.02,-131.8 2235.02,-131.8"/>
<polygon fill="black" stroke="black" points="2235.02,-135.3 2245.02,-131.8 2235.02,-128.3 2235.02,-135.3"/>
</g>
<!-- SchoolsModule -->
<g id="node27" class="node">
<title>SchoolsModule</title>
<polygon fill="#8dd3c7" stroke="black" points="869.88,-84.8 866.88,-88.8 845.88,-88.8 842.88,-84.8 766.12,-84.8 766.12,-48.8 869.88,-48.8 869.88,-84.8"/>
<text text-anchor="middle" x="818" y="-62.6" font-family="Times,serif" font-size="14.00">SchoolsModule</text>
</g>
<!-- SchoolsModule&#45;&gt;AppModule -->
<g id="edge26" class="edge">
<title>SchoolsModule&#45;&gt;AppModule</title>
<path fill="none" stroke="black" d="M818,-85.02C818,-105.17 818,-134.8 818,-134.8 818,-134.8 2235.01,-134.8 2235.01,-134.8"/>
<polygon fill="black" stroke="black" points="2235.01,-138.3 2245.01,-134.8 2235.01,-131.3 2235.01,-138.3"/>
</g>
<!-- SessionModule -->
<g id="node28" class="node">
<title>SessionModule</title>
<polygon fill="#8dd3c7" stroke="black" points="748.33,-84.8 745.33,-88.8 724.33,-88.8 721.33,-84.8 645.67,-84.8 645.67,-48.8 748.33,-48.8 748.33,-84.8"/>
<text text-anchor="middle" x="697" y="-62.6" font-family="Times,serif" font-size="14.00">SessionModule</text>
</g>
<!-- SessionModule&#45;&gt;AppModule -->
<g id="edge27" class="edge">
<title>SessionModule&#45;&gt;AppModule</title>
<path fill="none" stroke="black" d="M697,-84.83C697,-105.57 697,-136.8 697,-136.8 697,-136.8 2235.29,-136.8 2235.29,-136.8"/>
<polygon fill="black" stroke="black" points="2235.29,-140.3 2245.29,-136.8 2235.29,-133.3 2235.29,-140.3"/>
</g>
<!-- SyncStatusModule -->
<g id="node29" class="node">
<title>SyncStatusModule</title>
<polygon fill="#8dd3c7" stroke="black" points="627.77,-84.8 624.77,-88.8 603.77,-88.8 600.77,-84.8 506.23,-84.8 506.23,-48.8 627.77,-48.8 627.77,-84.8"/>
<text text-anchor="middle" x="567" y="-62.6" font-family="Times,serif" font-size="14.00">SyncStatusModule</text>
</g>
<!-- SyncStatusModule&#45;&gt;AppModule -->
<g id="edge28" class="edge">
<title>SyncStatusModule&#45;&gt;AppModule</title>
<path fill="none" stroke="black" d="M567,-84.97C567,-106.3 567,-138.8 567,-138.8 567,-138.8 2235.34,-138.8 2235.34,-138.8"/>
<polygon fill="black" stroke="black" points="2235.34,-142.3 2245.34,-138.8 2235.34,-135.3 2235.34,-142.3"/>
</g>
<!-- UiModule -->
<g id="node30" class="node">
<title>UiModule</title>
<polygon fill="#8dd3c7" stroke="black" points="487.55,-84.8 484.55,-88.8 463.55,-88.8 460.55,-84.8 414.45,-84.8 414.45,-48.8 487.55,-48.8 487.55,-84.8"/>
<text text-anchor="middle" x="451" y="-62.6" font-family="Times,serif" font-size="14.00">UiModule</text>
</g>
<!-- UiModule&#45;&gt;AppModule -->
<g id="edge29" class="edge">
<title>UiModule&#45;&gt;AppModule</title>
<path fill="none" stroke="black" d="M451,-85.09C451,-107.01 451,-140.8 451,-140.8 451,-140.8 2235.2,-140.8 2235.2,-140.8"/>
<polygon fill="black" stroke="black" points="2235.2,-144.3 2245.2,-140.8 2235.2,-137.3 2235.2,-144.3"/>
</g>
<!-- UserModule -->
<g id="node31" class="node">
<title>UserModule</title>
<polygon fill="#8dd3c7" stroke="black" points="395.98,-84.8 392.98,-88.8 371.98,-88.8 368.98,-84.8 310.02,-84.8 310.02,-48.8 395.98,-48.8 395.98,-84.8"/>
<text text-anchor="middle" x="353" y="-62.6" font-family="Times,serif" font-size="14.00">UserModule</text>
</g>
<!-- UserModule&#45;&gt;AppModule -->
<g id="edge30" class="edge">
<title>UserModule&#45;&gt;AppModule</title>
<path fill="none" stroke="black" d="M353,-85.05C353,-107.82 353,-143.8 353,-143.8 353,-143.8 2235.26,-143.8 2235.26,-143.8"/>
<polygon fill="black" stroke="black" points="2235.26,-147.3 2245.26,-143.8 2235.26,-140.3 2235.26,-147.3"/>
</g>
<!-- ViewModule -->
<g id="node32" class="node">
<title>ViewModule</title>
<polygon fill="#8dd3c7" stroke="black" points="291.87,-84.8 288.87,-88.8 267.87,-88.8 264.87,-84.8 202.13,-84.8 202.13,-48.8 291.87,-48.8 291.87,-84.8"/>
<text text-anchor="middle" x="247" y="-62.6" font-family="Times,serif" font-size="14.00">ViewModule</text>
</g>
<!-- ViewModule&#45;&gt;AppModule -->
<g id="edge31" class="edge">
<title>ViewModule&#45;&gt;AppModule</title>
<path fill="none" stroke="black" d="M247,-85.12C247,-108.46 247,-145.8 247,-145.8 247,-145.8 2235.33,-145.8 2235.33,-145.8"/>
<polygon fill="black" stroke="black" points="2235.33,-149.3 2245.33,-145.8 2235.33,-142.3 2235.33,-149.3"/>
</g>
<!-- AnalyticsService -->
<g id="node34" class="node">
<title>AnalyticsService</title>
<ellipse fill="#fdb462" stroke="black" cx="101" cy="-66.8" rx="77" ry="18"/>
<text text-anchor="middle" x="101" y="-62.6" font-family="Times,serif" font-size="14.00">AnalyticsService</text>
</g>
<!-- AnalyticsService&#45;&gt;AppModule -->
<g id="edge33" class="edge">
<title>AnalyticsService&#45;&gt;AppModule</title>
<path fill="none" stroke="black" d="M101,-85.18C101,-109.08 101,-147.8 101,-147.8 101,-147.8 2235.28,-147.8 2235.28,-147.8"/>
<polygon fill="black" stroke="black" points="2235.28,-151.3 2245.28,-147.8 2235.28,-144.3 2235.28,-151.3"/>
</g>
</g>
</svg>
