<?xml version="1.0" encoding="UTF-8" standalone="no"?>
<!DOCTYPE svg PUBLIC "-//W3C//DTD SVG 1.1//EN"
 "http://www.w3.org/Graphics/SVG/1.1/DTD/svg11.dtd">
<!-- Generated by graphviz version 2.47.3 (20210619.1520)
 -->
<!-- Title: dependencies Pages: 1 -->
<svg width="3807pt" height="247pt"
 viewBox="0.00 0.00 3807.00 246.80" xmlns="http://www.w3.org/2000/svg" xmlns:xlink="http://www.w3.org/1999/xlink">
<g id="graph0" class="graph" transform="scale(1 1) rotate(0) translate(4 242.8)">
<title>dependencies</title>
<polygon fill="white" stroke="transparent" points="-4,4 -4,-242.8 3803,-242.8 3803,4 -4,4"/>
<text text-anchor="middle" x="1899.5" y="-8.2" font-family="sans-serif" font-size="14.00">dependencies</text>
<g id="clust1" class="cluster">
<title>cluster_ChildrenModule</title>
<polygon fill="none" stroke="black" stroke-dasharray="1,5" points="8,-32.8 8,-230.8 3791,-230.8 3791,-32.8 8,-32.8"/>
</g>
<g id="clust16" class="cluster">
<title>cluster_ChildrenModule_exports</title>
<polygon fill="none" stroke="black" points="1053,-170.8 1053,-222.8 2113,-222.8 2113,-170.8 1053,-170.8"/>
</g>
<g id="clust2" class="cluster">
<title>cluster_ChildrenModule_declarations</title>
<polygon fill="none" stroke="black" points="1442,-40.8 1442,-92.8 3783,-92.8 3783,-40.8 1442,-40.8"/>
</g>
<g id="clust15" class="cluster">
<title>cluster_ChildrenModule_imports</title>
<polygon fill="none" stroke="black" points="188,-40.8 188,-92.8 1434,-92.8 1434,-40.8 188,-40.8"/>
</g>
<g id="clust18" class="cluster">
<title>cluster_ChildrenModule_providers</title>
<polygon fill="none" stroke="black" points="16,-40.8 16,-92.8 180,-92.8 180,-40.8 16,-40.8"/>
</g>
<!-- AserComponent -->
<g id="node1" class="node">
<title>AserComponent</title>
<polygon fill="#ffffb3" stroke="black" points="3774.76,-84.8 3667.24,-84.8 3667.24,-48.8 3774.76,-48.8 3774.76,-84.8"/>
<text text-anchor="middle" x="3721" y="-62.6" font-family="Times,serif" font-size="14.00">AserComponent</text>
</g>
<!-- ChildrenModule -->
<g id="node13" class="node">
<title>ChildrenModule</title>
<polygon fill="#8dd3c7" stroke="black" points="1717.04,-149.8 1714.04,-153.8 1693.04,-153.8 1690.04,-149.8 1608.96,-149.8 1608.96,-113.8 1717.04,-113.8 1717.04,-149.8"/>
<text text-anchor="middle" x="1663" y="-127.6" font-family="Times,serif" font-size="14.00">ChildrenModule</text>
</g>
<!-- AserComponent&#45;&gt;ChildrenModule -->
<g id="edge1" class="edge">
<title>AserComponent&#45;&gt;ChildrenModule</title>
<path fill="none" stroke="black" d="M3721,-84.96C3721,-107.15 3721,-141.8 3721,-141.8 3721,-141.8 1727.25,-141.8 1727.25,-141.8"/>
<polygon fill="black" stroke="black" points="1727.25,-138.3 1717.25,-141.8 1727.25,-145.3 1727.25,-138.3"/>
</g>
<!-- BmiBlockComponent -->
<g id="node2" class="node">
<title>BmiBlockComponent</title>
<polygon fill="#ffffb3" stroke="black" points="3649.39,-84.8 3510.61,-84.8 3510.61,-48.8 3649.39,-48.8 3649.39,-84.8"/>
<text text-anchor="middle" x="3580" y="-62.6" font-family="Times,serif" font-size="14.00">BmiBlockComponent</text>
</g>
<!-- BmiBlockComponent&#45;&gt;ChildrenModule -->
<g id="edge2" class="edge">
<title>BmiBlockComponent&#45;&gt;ChildrenModule</title>
<path fill="none" stroke="black" d="M3580,-84.97C3580,-106.3 3580,-138.8 3580,-138.8 3580,-138.8 1727.28,-138.8 1727.28,-138.8"/>
<polygon fill="black" stroke="black" points="1727.28,-135.3 1717.28,-138.8 1727.28,-142.3 1727.28,-135.3"/>
</g>
<!-- ChildBlockComponent -->
<g id="node3" class="node">
<title>ChildBlockComponent</title>
<polygon fill="#ffffb3" stroke="black" points="3492.89,-84.8 3347.11,-84.8 3347.11,-48.8 3492.89,-48.8 3492.89,-84.8"/>
<text text-anchor="middle" x="3420" y="-62.6" font-family="Times,serif" font-size="14.00">ChildBlockComponent</text>
</g>
<!-- ChildBlockComponent&#45;&gt;ChildrenModule -->
<g id="edge3" class="edge">
<title>ChildBlockComponent&#45;&gt;ChildrenModule</title>
<path fill="none" stroke="black" d="M3420,-84.83C3420,-105.57 3420,-136.8 3420,-136.8 3420,-136.8 1727.51,-136.8 1727.51,-136.8"/>
<polygon fill="black" stroke="black" points="1727.51,-133.3 1717.51,-136.8 1727.51,-140.3 1727.51,-133.3"/>
</g>
<!-- ChildrenBmiDashboardComponent -->
<g id="node4" class="node">
<title>ChildrenBmiDashboardComponent</title>
<polygon fill="#ffffb3" stroke="black" points="3329.58,-84.8 3114.42,-84.8 3114.42,-48.8 3329.58,-48.8 3329.58,-84.8"/>
<text text-anchor="middle" x="3222" y="-62.6" font-family="Times,serif" font-size="14.00">ChildrenBmiDashboardComponent</text>
</g>
<!-- ChildrenBmiDashboardComponent&#45;&gt;ChildrenModule -->
<g id="edge4" class="edge">
<title>ChildrenBmiDashboardComponent&#45;&gt;ChildrenModule</title>
<path fill="none" stroke="black" d="M3222,-85.11C3222,-104.95 3222,-133.8 3222,-133.8 3222,-133.8 1727.12,-133.8 1727.12,-133.8"/>
<polygon fill="black" stroke="black" points="1727.12,-130.3 1717.12,-133.8 1727.12,-137.3 1727.12,-130.3"/>
</g>
<!-- ChildrenCountDashboardComponent -->
<g id="node5" class="node">
<title>ChildrenCountDashboardComponent</title>
<polygon fill="#ffffb3" stroke="black" points="3096.69,-84.8 2871.31,-84.8 2871.31,-48.8 3096.69,-48.8 3096.69,-84.8"/>
<text text-anchor="middle" x="2984" y="-62.6" font-family="Times,serif" font-size="14.00">ChildrenCountDashboardComponent</text>
</g>
<!-- ChildrenCountDashboardComponent&#45;&gt;ChildrenModule -->
<g id="edge5" class="edge">
<title>ChildrenCountDashboardComponent&#45;&gt;ChildrenModule</title>
<path fill="none" stroke="black" d="M2984,-84.97C2984,-103.89 2984,-130.8 2984,-130.8 2984,-130.8 1727.25,-130.8 1727.25,-130.8"/>
<polygon fill="black" stroke="black" points="1727.25,-127.3 1717.25,-130.8 1727.25,-134.3 1727.25,-127.3"/>
</g>
<!-- ChildrenListComponent -->
<g id="node6" class="node">
<title>ChildrenListComponent</title>
<polygon fill="#ffffb3" stroke="black" points="2853.1,-84.8 2700.9,-84.8 2700.9,-48.8 2853.1,-48.8 2853.1,-84.8"/>
<text text-anchor="middle" x="2777" y="-62.6" font-family="Times,serif" font-size="14.00">ChildrenListComponent</text>
</g>
<!-- ChildrenListComponent&#45;&gt;ChildrenModule -->
<g id="edge6" class="edge">
<title>ChildrenListComponent&#45;&gt;ChildrenModule</title>
<path fill="none" stroke="black" d="M2777,-85.1C2777,-103.07 2777,-127.8 2777,-127.8 2777,-127.8 1727.11,-127.8 1727.11,-127.8"/>
<polygon fill="black" stroke="black" points="1727.11,-124.3 1717.11,-127.8 1727.11,-131.3 1727.11,-124.3"/>
</g>
<!-- EducationalMaterialComponent -->
<g id="node7" class="node">
<title>EducationalMaterialComponent</title>
<polygon fill="#ffffb3" stroke="black" points="2682.62,-84.8 2487.38,-84.8 2487.38,-48.8 2682.62,-48.8 2682.62,-84.8"/>
<text text-anchor="middle" x="2585" y="-62.6" font-family="Times,serif" font-size="14.00">EducationalMaterialComponent</text>
</g>
<!-- EducationalMaterialComponent&#45;&gt;ChildrenModule -->
<g id="edge7" class="edge">
<title>EducationalMaterialComponent&#45;&gt;ChildrenModule</title>
<path fill="none" stroke="black" d="M2585,-84.82C2585,-102.17 2585,-125.8 2585,-125.8 2585,-125.8 1727.23,-125.8 1727.23,-125.8"/>
<polygon fill="black" stroke="black" points="1727.23,-122.3 1717.23,-125.8 1727.23,-129.3 1727.23,-122.3"/>
</g>
<!-- HealthCheckupComponent -->
<g id="node8" class="node">
<title>HealthCheckupComponent</title>
<polygon fill="#ffffb3" stroke="black" points="2469.42,-84.8 2300.58,-84.8 2300.58,-48.8 2469.42,-48.8 2469.42,-84.8"/>
<text text-anchor="middle" x="2385" y="-62.6" font-family="Times,serif" font-size="14.00">HealthCheckupComponent</text>
</g>
<!-- HealthCheckupComponent&#45;&gt;ChildrenModule -->
<g id="edge8" class="edge">
<title>HealthCheckupComponent&#45;&gt;ChildrenModule</title>
<path fill="none" stroke="black" d="M2385,-84.83C2385,-101.2 2385,-122.8 2385,-122.8 2385,-122.8 1727.27,-122.8 1727.27,-122.8"/>
<polygon fill="black" stroke="black" points="1727.27,-119.3 1717.27,-122.8 1727.27,-126.3 1727.27,-119.3"/>
</g>
<!-- NoRecentNotesDashboardComponent -->
<g id="node9" class="node">
<title>NoRecentNotesDashboardComponent</title>
<polygon fill="#ffffb3" stroke="black" points="2282.11,-84.8 2051.89,-84.8 2051.89,-48.8 2282.11,-48.8 2282.11,-84.8"/>
<text text-anchor="middle" x="2167" y="-62.6" font-family="Times,serif" font-size="14.00">NoRecentNotesDashboardComponent</text>
</g>
<!-- NoRecentNotesDashboardComponent&#45;&gt;ChildrenModule -->
<g id="edge9" class="edge">
<title>NoRecentNotesDashboardComponent&#45;&gt;ChildrenModule</title>
<path fill="none" stroke="black" d="M2078.45,-85.04C2078.45,-100.37 2078.45,-119.8 2078.45,-119.8 2078.45,-119.8 1727.31,-119.8 1727.31,-119.8"/>
<polygon fill="black" stroke="black" points="1727.31,-116.3 1717.31,-119.8 1727.31,-123.3 1727.31,-116.3"/>
</g>
<!-- NotesOfChildComponent -->
<g id="node10" class="node">
<title>NotesOfChildComponent</title>
<polygon fill="#ffffb3" stroke="black" points="2033.87,-84.8 1874.13,-84.8 1874.13,-48.8 2033.87,-48.8 2033.87,-84.8"/>
<text text-anchor="middle" x="1954" y="-62.6" font-family="Times,serif" font-size="14.00">NotesOfChildComponent</text>
</g>
<!-- NotesOfChildComponent&#45;&gt;ChildrenModule -->
<g id="edge10" class="edge">
<title>NotesOfChildComponent&#45;&gt;ChildrenModule</title>
<path fill="none" stroke="black" d="M1909.38,-84.85C1909.38,-99.17 1909.38,-116.8 1909.38,-116.8 1909.38,-116.8 1727.07,-116.8 1727.07,-116.8"/>
<polygon fill="black" stroke="black" points="1727.07,-113.3 1717.07,-116.8 1727.07,-120.3 1727.07,-113.3"/>
</g>
<!-- PreviousSchoolsComponent -->
<g id="node11" class="node">
<title>PreviousSchoolsComponent</title>
<polygon fill="#ffffb3" stroke="black" points="1856.16,-84.8 1681.84,-84.8 1681.84,-48.8 1856.16,-48.8 1856.16,-84.8"/>
<text text-anchor="middle" x="1769" y="-62.6" font-family="Times,serif" font-size="14.00">PreviousSchoolsComponent</text>
</g>
<!-- PreviousSchoolsComponent&#45;&gt;ChildrenModule -->
<g id="edge11" class="edge">
<title>PreviousSchoolsComponent&#45;&gt;ChildrenModule</title>
<path fill="none" stroke="black" d="M1699.47,-84.91C1699.47,-84.91 1699.47,-103.79 1699.47,-103.79"/>
<polygon fill="black" stroke="black" points="1695.97,-103.79 1699.47,-113.79 1702.97,-103.79 1695.97,-103.79"/>
</g>
<!-- RecentNotesDashboardComponent -->
<g id="node12" class="node">
<title>RecentNotesDashboardComponent</title>
<polygon fill="#ffffb3" stroke="black" points="1663.5,-84.8 1450.5,-84.8 1450.5,-48.8 1663.5,-48.8 1663.5,-84.8"/>
<text text-anchor="middle" x="1557" y="-62.6" font-family="Times,serif" font-size="14.00">RecentNotesDashboardComponent</text>
</g>
<!-- RecentNotesDashboardComponent&#45;&gt;ChildrenModule -->
<g id="edge12" class="edge">
<title>RecentNotesDashboardComponent&#45;&gt;ChildrenModule</title>
<path fill="none" stroke="black" d="M1636.24,-84.91C1636.24,-84.91 1636.24,-103.79 1636.24,-103.79"/>
<polygon fill="black" stroke="black" points="1632.74,-103.79 1636.24,-113.79 1639.74,-103.79 1632.74,-103.79"/>
</g>
<!-- BmiBlockComponent  -->
<g id="node23" class="node">
<title>BmiBlockComponent </title>
<polygon fill="#fb8072" stroke="black" points="2105.39,-214.8 1962.61,-214.8 1962.61,-178.8 2105.39,-178.8 2105.39,-214.8"/>
<text text-anchor="middle" x="2034" y="-192.6" font-family="Times,serif" font-size="14.00">BmiBlockComponent </text>
</g>
<!-- ChildrenModule&#45;&gt;BmiBlockComponent  -->
<g id="edge22" class="edge">
<title>ChildrenModule&#45;&gt;BmiBlockComponent </title>
<path fill="none" stroke="black" stroke-dasharray="5,2" d="M1717.26,-144.8C1812.17,-144.8 1998.37,-144.8 1998.37,-144.8 1998.37,-144.8 1998.37,-168.61 1998.37,-168.61"/>
<polygon fill="black" stroke="black" points="1994.87,-168.61 1998.37,-178.61 2001.87,-168.61 1994.87,-168.61"/>
</g>
<!-- ChildBlockComponent  -->
<g id="node24" class="node">
<title>ChildBlockComponent </title>
<polygon fill="#fb8072" stroke="black" points="1944.89,-214.8 1795.11,-214.8 1795.11,-178.8 1944.89,-178.8 1944.89,-214.8"/>
<text text-anchor="middle" x="1870" y="-192.6" font-family="Times,serif" font-size="14.00">ChildBlockComponent </text>
</g>
<!-- ChildrenModule&#45;&gt;ChildBlockComponent  -->
<g id="edge23" class="edge">
<title>ChildrenModule&#45;&gt;ChildBlockComponent </title>
<path fill="none" stroke="black" stroke-dasharray="5,2" d="M1717.22,-147.8C1764.58,-147.8 1825.82,-147.8 1825.82,-147.8 1825.82,-147.8 1825.82,-168.55 1825.82,-168.55"/>
<polygon fill="black" stroke="black" points="1822.32,-168.55 1825.82,-178.55 1829.32,-168.55 1822.32,-168.55"/>
</g>
<!-- ChildrenCountDashboardComponent  -->
<g id="node25" class="node">
<title>ChildrenCountDashboardComponent </title>
<polygon fill="#fb8072" stroke="black" points="1777.19,-214.8 1548.81,-214.8 1548.81,-178.8 1777.19,-178.8 1777.19,-214.8"/>
<text text-anchor="middle" x="1663" y="-192.6" font-family="Times,serif" font-size="14.00">ChildrenCountDashboardComponent </text>
</g>
<!-- ChildrenModule&#45;&gt;ChildrenCountDashboardComponent  -->
<g id="edge24" class="edge">
<title>ChildrenModule&#45;&gt;ChildrenCountDashboardComponent </title>
<path fill="none" stroke="black" stroke-dasharray="5,2" d="M1663,-149.91C1663,-149.91 1663,-168.79 1663,-168.79"/>
<polygon fill="black" stroke="black" points="1659.5,-168.79 1663,-178.79 1666.5,-168.79 1659.5,-168.79"/>
</g>
<!-- NoRecentNotesDashboardComponent  -->
<g id="node26" class="node">
<title>NoRecentNotesDashboardComponent </title>
<polygon fill="#fb8072" stroke="black" points="1531.11,-214.8 1296.89,-214.8 1296.89,-178.8 1531.11,-178.8 1531.11,-214.8"/>
<text text-anchor="middle" x="1414" y="-192.6" font-family="Times,serif" font-size="14.00">NoRecentNotesDashboardComponent </text>
</g>
<!-- ChildrenModule&#45;&gt;NoRecentNotesDashboardComponent  -->
<g id="edge25" class="edge">
<title>ChildrenModule&#45;&gt;NoRecentNotesDashboardComponent </title>
<path fill="none" stroke="black" stroke-dasharray="5,2" d="M1608.94,-147.8C1558.4,-147.8 1490.65,-147.8 1490.65,-147.8 1490.65,-147.8 1490.65,-168.55 1490.65,-168.55"/>
<polygon fill="black" stroke="black" points="1487.15,-168.55 1490.65,-178.55 1494.15,-168.55 1487.15,-168.55"/>
</g>
<!-- RecentNotesDashboardComponent  -->
<g id="node27" class="node">
<title>RecentNotesDashboardComponent </title>
<polygon fill="#fb8072" stroke="black" points="1278.5,-214.8 1061.5,-214.8 1061.5,-178.8 1278.5,-178.8 1278.5,-214.8"/>
<text text-anchor="middle" x="1170" y="-192.6" font-family="Times,serif" font-size="14.00">RecentNotesDashboardComponent </text>
</g>
<!-- ChildrenModule&#45;&gt;RecentNotesDashboardComponent  -->
<g id="edge26" class="edge">
<title>ChildrenModule&#45;&gt;RecentNotesDashboardComponent </title>
<path fill="none" stroke="black" stroke-dasharray="5,2" d="M1608.51,-144.8C1487.6,-144.8 1207.48,-144.8 1207.48,-144.8 1207.48,-144.8 1207.48,-168.61 1207.48,-168.61"/>
<polygon fill="black" stroke="black" points="1203.98,-168.61 1207.48,-178.61 1210.98,-168.61 1203.98,-168.61"/>
</g>
<!-- AdminModule -->
<g id="node14" class="node">
<title>AdminModule</title>
<polygon fill="#8dd3c7" stroke="black" points="1426.44,-84.8 1423.44,-88.8 1402.44,-88.8 1399.44,-84.8 1327.56,-84.8 1327.56,-48.8 1426.44,-48.8 1426.44,-84.8"/>
<text text-anchor="middle" x="1377" y="-62.6" font-family="Times,serif" font-size="14.00">AdminModule</text>
</g>
<!-- AdminModule&#45;&gt;ChildrenModule -->
<g id="edge13" class="edge">
<title>AdminModule&#45;&gt;ChildrenModule</title>
<path fill="none" stroke="black" d="M1377,-84.85C1377,-99.17 1377,-116.8 1377,-116.8 1377,-116.8 1598.87,-116.8 1598.87,-116.8"/>
<polygon fill="black" stroke="black" points="1598.87,-120.3 1608.87,-116.8 1598.87,-113.3 1598.87,-120.3"/>
</g>
<!-- ConfirmationDialogModule -->
<g id="node15" class="node">
<title>ConfirmationDialogModule</title>
<polygon fill="#8dd3c7" stroke="black" points="1309.59,-84.8 1306.59,-88.8 1285.59,-88.8 1282.59,-84.8 1136.41,-84.8 1136.41,-48.8 1309.59,-48.8 1309.59,-84.8"/>
<text text-anchor="middle" x="1223" y="-62.6" font-family="Times,serif" font-size="14.00">ConfirmationDialogModule</text>
</g>
<!-- ConfirmationDialogModule&#45;&gt;ChildrenModule -->
<g id="edge14" class="edge">
<title>ConfirmationDialogModule&#45;&gt;ChildrenModule</title>
<path fill="none" stroke="black" d="M1303.24,-85.04C1303.24,-100.37 1303.24,-119.8 1303.24,-119.8 1303.24,-119.8 1598.75,-119.8 1598.75,-119.8"/>
<polygon fill="black" stroke="black" points="1598.75,-123.3 1608.75,-119.8 1598.75,-116.3 1598.75,-123.3"/>
</g>
<!-- EntityListModule -->
<g id="node16" class="node">
<title>EntityListModule</title>
<polygon fill="#8dd3c7" stroke="black" points="1118.55,-84.8 1115.55,-88.8 1094.55,-88.8 1091.55,-84.8 1003.45,-84.8 1003.45,-48.8 1118.55,-48.8 1118.55,-84.8"/>
<text text-anchor="middle" x="1061" y="-62.6" font-family="Times,serif" font-size="14.00">EntityListModule</text>
</g>
<!-- EntityListModule&#45;&gt;ChildrenModule -->
<g id="edge15" class="edge">
<title>EntityListModule&#45;&gt;ChildrenModule</title>
<path fill="none" stroke="black" d="M1090.14,-84.83C1090.14,-101.2 1090.14,-122.8 1090.14,-122.8 1090.14,-122.8 1598.85,-122.8 1598.85,-122.8"/>
<polygon fill="black" stroke="black" points="1598.85,-126.3 1608.85,-122.8 1598.85,-119.3 1598.85,-126.3"/>
</g>
<!-- EntitySubrecordModule -->
<g id="node17" class="node">
<title>EntitySubrecordModule</title>
<polygon fill="#8dd3c7" stroke="black" points="985.81,-84.8 982.81,-88.8 961.81,-88.8 958.81,-84.8 834.19,-84.8 834.19,-48.8 985.81,-48.8 985.81,-84.8"/>
<text text-anchor="middle" x="910" y="-62.6" font-family="Times,serif" font-size="14.00">EntitySubrecordModule</text>
</g>
<!-- EntitySubrecordModule&#45;&gt;ChildrenModule -->
<g id="edge16" class="edge">
<title>EntitySubrecordModule&#45;&gt;ChildrenModule</title>
<path fill="none" stroke="black" d="M910,-84.82C910,-102.17 910,-125.8 910,-125.8 910,-125.8 1598.85,-125.8 1598.85,-125.8"/>
<polygon fill="black" stroke="black" points="1598.85,-129.3 1608.85,-125.8 1598.85,-122.3 1598.85,-129.3"/>
</g>
<!-- EntityUtilsModule -->
<g id="node18" class="node">
<title>EntityUtilsModule</title>
<polygon fill="#8dd3c7" stroke="black" points="816.5,-84.8 813.5,-88.8 792.5,-88.8 789.5,-84.8 695.5,-84.8 695.5,-48.8 816.5,-48.8 816.5,-84.8"/>
<text text-anchor="middle" x="756" y="-62.6" font-family="Times,serif" font-size="14.00">EntityUtilsModule</text>
</g>
<!-- EntityUtilsModule&#45;&gt;ChildrenModule -->
<g id="edge17" class="edge">
<title>EntityUtilsModule&#45;&gt;ChildrenModule</title>
<path fill="none" stroke="black" d="M756,-85.1C756,-103.07 756,-127.8 756,-127.8 756,-127.8 1598.64,-127.8 1598.64,-127.8"/>
<polygon fill="black" stroke="black" points="1598.64,-131.3 1608.64,-127.8 1598.64,-124.3 1598.64,-131.3"/>
</g>
<!-- FormDialogModule -->
<g id="node19" class="node">
<title>FormDialogModule</title>
<polygon fill="#8dd3c7" stroke="black" points="677.99,-84.8 674.99,-88.8 653.99,-88.8 650.99,-84.8 550.01,-84.8 550.01,-48.8 677.99,-48.8 677.99,-84.8"/>
<text text-anchor="middle" x="614" y="-62.6" font-family="Times,serif" font-size="14.00">FormDialogModule</text>
</g>
<!-- FormDialogModule&#45;&gt;ChildrenModule -->
<g id="edge18" class="edge">
<title>FormDialogModule&#45;&gt;ChildrenModule</title>
<path fill="none" stroke="black" d="M614,-84.97C614,-103.89 614,-130.8 614,-130.8 614,-130.8 1598.81,-130.8 1598.81,-130.8"/>
<polygon fill="black" stroke="black" points="1598.81,-134.3 1608.81,-130.8 1598.81,-127.3 1598.81,-134.3"/>
</g>
<!-- SchoolsModule -->
<g id="node20" class="node">
<title>SchoolsModule</title>
<polygon fill="#8dd3c7" stroke="black" points="531.88,-84.8 528.88,-88.8 507.88,-88.8 504.88,-84.8 428.12,-84.8 428.12,-48.8 531.88,-48.8 531.88,-84.8"/>
<text text-anchor="middle" x="480" y="-62.6" font-family="Times,serif" font-size="14.00">SchoolsModule</text>
</g>
<!-- SchoolsModule&#45;&gt;ChildrenModule -->
<g id="edge19" class="edge">
<title>SchoolsModule&#45;&gt;ChildrenModule</title>
<path fill="none" stroke="black" d="M480,-85.11C480,-104.95 480,-133.8 480,-133.8 480,-133.8 1598.71,-133.8 1598.71,-133.8"/>
<polygon fill="black" stroke="black" points="1598.71,-137.3 1608.71,-133.8 1598.71,-130.3 1598.71,-137.3"/>
</g>
<!-- ViewModule -->
<g id="node21" class="node">
<title>ViewModule</title>
<polygon fill="#8dd3c7" stroke="black" points="409.87,-84.8 406.87,-88.8 385.87,-88.8 382.87,-84.8 320.13,-84.8 320.13,-48.8 409.87,-48.8 409.87,-84.8"/>
<text text-anchor="middle" x="365" y="-62.6" font-family="Times,serif" font-size="14.00">ViewModule</text>
</g>
<!-- ViewModule&#45;&gt;ChildrenModule -->
<g id="edge20" class="edge">
<title>ViewModule&#45;&gt;ChildrenModule</title>
<path fill="none" stroke="black" d="M365,-84.83C365,-105.57 365,-136.8 365,-136.8 365,-136.8 1598.88,-136.8 1598.88,-136.8"/>
<polygon fill="black" stroke="black" points="1598.88,-140.3 1608.88,-136.8 1598.88,-133.3 1598.88,-140.3"/>
</g>
<!-- WebdavModule -->
<g id="node22" class="node">
<title>WebdavModule</title>
<polygon fill="#8dd3c7" stroke="black" points="302.19,-84.8 299.19,-88.8 278.19,-88.8 275.19,-84.8 195.81,-84.8 195.81,-48.8 302.19,-48.8 302.19,-84.8"/>
<text text-anchor="middle" x="249" y="-62.6" font-family="Times,serif" font-size="14.00">WebdavModule</text>
</g>
<!-- WebdavModule&#45;&gt;ChildrenModule -->
<g id="edge21" class="edge">
<title>WebdavModule&#45;&gt;ChildrenModule</title>
<path fill="none" stroke="black" d="M249,-84.97C249,-106.3 249,-138.8 249,-138.8 249,-138.8 1598.87,-138.8 1598.87,-138.8"/>
<polygon fill="black" stroke="black" points="1598.87,-142.3 1608.87,-138.8 1598.87,-135.3 1598.87,-142.3"/>
</g>
<!-- ChildrenService -->
<g id="node28" class="node">
<title>ChildrenService</title>
<ellipse fill="#fdb462" stroke="black" cx="98" cy="-66.8" rx="73.57" ry="18"/>
<text text-anchor="middle" x="98" y="-62.6" font-family="Times,serif" font-size="14.00">ChildrenService</text>
</g>
<!-- ChildrenService&#45;&gt;ChildrenModule -->
<g id="edge27" class="edge">
<title>ChildrenService&#45;&gt;ChildrenModule</title>
<path fill="none" stroke="black" d="M98,-84.96C98,-107.15 98,-141.8 98,-141.8 98,-141.8 1598.67,-141.8 1598.67,-141.8"/>
<polygon fill="black" stroke="black" points="1598.67,-145.3 1608.67,-141.8 1598.67,-138.3 1598.67,-145.3"/>
</g>
</g>
</svg>
