<?xml version="1.0" encoding="UTF-8" standalone="no"?>
<!DOCTYPE svg PUBLIC "-//W3C//DTD SVG 1.1//EN"
 "http://www.w3.org/Graphics/SVG/1.1/DTD/svg11.dtd">
<!-- Generated by graphviz version 2.47.3 (20210619.1520)
 -->
<!-- Title: dependencies Pages: 1 -->
<svg width="504pt" height="247pt"
 viewBox="0.00 0.00 504.00 246.80" xmlns="http://www.w3.org/2000/svg" xmlns:xlink="http://www.w3.org/1999/xlink">
<g id="graph0" class="graph" transform="scale(1 1) rotate(0) translate(4 242.8)">
<title>dependencies</title>
<polygon fill="white" stroke="transparent" points="-4,4 -4,-242.8 500,-242.8 500,4 -4,4"/>
<text text-anchor="middle" x="248" y="-8.2" font-family="sans-serif" font-size="14.00">dependencies</text>
<g id="clust1" class="cluster">
<title>cluster_SessionModule</title>
<polygon fill="none" stroke="black" stroke-dasharray="1,5" points="8,-32.8 8,-230.8 488,-230.8 488,-32.8 8,-32.8"/>
</g>
<g id="clust5" class="cluster">
<title>cluster_SessionModule_exports</title>
<polygon fill="none" stroke="black" points="164,-170.8 164,-222.8 298,-222.8 298,-170.8 164,-170.8"/>
</g>
<g id="clust2" class="cluster">
<title>cluster_SessionModule_declarations</title>
<polygon fill="none" stroke="black" points="350,-40.8 350,-92.8 480,-92.8 480,-40.8 350,-40.8"/>
</g>
<g id="clust4" class="cluster">
<title>cluster_SessionModule_imports</title>
<polygon fill="none" stroke="black" points="16,-40.8 16,-92.8 342,-92.8 342,-40.8 16,-40.8"/>
</g>
<!-- LoginComponent -->
<g id="node1" class="node">
<title>LoginComponent</title>
<polygon fill="#ffffb3" stroke="black" points="472.28,-84.8 357.72,-84.8 357.72,-48.8 472.28,-48.8 472.28,-84.8"/>
<text text-anchor="middle" x="415" y="-62.6" font-family="Times,serif" font-size="14.00">LoginComponent</text>
</g>
<!-- SessionModule -->
<g id="node2" class="node">
<title>SessionModule</title>
<polygon fill="#8dd3c7" stroke="black" points="282.33,-149.8 279.33,-153.8 258.33,-153.8 255.33,-149.8 179.67,-149.8 179.67,-113.8 282.33,-113.8 282.33,-149.8"/>
<text text-anchor="middle" x="231" y="-127.6" font-family="Times,serif" font-size="14.00">SessionModule</text>
</g>
<!-- LoginComponent&#45;&gt;SessionModule -->
<g id="edge1" class="edge">
<title>LoginComponent&#45;&gt;SessionModule</title>
<path fill="none" stroke="black" d="M415,-84.91C415,-104.14 415,-131.8 415,-131.8 415,-131.8 292.25,-131.8 292.25,-131.8"/>
<polygon fill="black" stroke="black" points="292.25,-128.3 282.25,-131.8 292.25,-135.3 292.25,-128.3"/>
</g>
<!-- LoginComponent  -->
<g id="node6" class="node">
<title>LoginComponent </title>
<polygon fill="#fb8072" stroke="black" points="290.28,-214.8 171.72,-214.8 171.72,-178.8 290.28,-178.8 290.28,-214.8"/>
<text text-anchor="middle" x="231" y="-192.6" font-family="Times,serif" font-size="14.00">LoginComponent </text>
</g>
<!-- SessionModule&#45;&gt;LoginComponent  -->
<g id="edge5" class="edge">
<title>SessionModule&#45;&gt;LoginComponent </title>
<path fill="none" stroke="black" stroke-dasharray="5,2" d="M231,-149.91C231,-149.91 231,-168.79 231,-168.79"/>
<polygon fill="black" stroke="black" points="227.5,-168.79 231,-178.79 234.5,-168.79 227.5,-168.79"/>
</g>
<!-- AlertsModule -->
<g id="node3" class="node">
<title>AlertsModule</title>
<polygon fill="#8dd3c7" stroke="black" points="333.76,-84.8 330.76,-88.8 309.76,-88.8 306.76,-84.8 240.24,-84.8 240.24,-48.8 333.76,-48.8 333.76,-84.8"/>
<text text-anchor="middle" x="287" y="-62.6" font-family="Times,serif" font-size="14.00">AlertsModule</text>
</g>
<!-- AlertsModule&#45;&gt;SessionModule -->
<g id="edge2" class="edge">
<title>AlertsModule&#45;&gt;SessionModule</title>
<path fill="none" stroke="black" d="M261.14,-84.91C261.14,-84.91 261.14,-103.79 261.14,-103.79"/>
<polygon fill="black" stroke="black" points="257.64,-103.79 261.14,-113.79 264.64,-103.79 257.64,-103.79"/>
</g>
<!-- EntityModule -->
<g id="node4" class="node">
<title>EntityModule</title>
<polygon fill="#8dd3c7" stroke="black" points="221.77,-84.8 218.77,-88.8 197.77,-88.8 194.77,-84.8 128.23,-84.8 128.23,-48.8 221.77,-48.8 221.77,-84.8"/>
<text text-anchor="middle" x="175" y="-62.6" font-family="Times,serif" font-size="14.00">EntityModule</text>
</g>
<!-- EntityModule&#45;&gt;SessionModule -->
<g id="edge3" class="edge">
<title>EntityModule&#45;&gt;SessionModule</title>
<path fill="none" stroke="black" d="M200.86,-84.91C200.86,-84.91 200.86,-103.79 200.86,-103.79"/>
<polygon fill="black" stroke="black" points="197.36,-103.79 200.86,-113.79 204.36,-103.79 197.36,-103.79"/>
</g>
<!-- UserModule -->
<g id="node5" class="node">
<title>UserModule</title>
<polygon fill="#8dd3c7" stroke="black" points="109.98,-84.8 106.98,-88.8 85.98,-88.8 82.98,-84.8 24.02,-84.8 24.02,-48.8 109.98,-48.8 109.98,-84.8"/>
<text text-anchor="middle" x="67" y="-62.6" font-family="Times,serif" font-size="14.00">UserModule</text>
</g>
<!-- UserModule&#45;&gt;SessionModule -->
<g id="edge4" class="edge">
<title>UserModule&#45;&gt;SessionModule</title>
<path fill="none" stroke="black" d="M67,-84.91C67,-104.14 67,-131.8 67,-131.8 67,-131.8 169.56,-131.8 169.56,-131.8"/>
<polygon fill="black" stroke="black" points="169.56,-135.3 179.56,-131.8 169.56,-128.3 169.56,-135.3"/>
</g>
</g>
</svg>
